<svg xmlns="http://www.w3.org/2000/svg" xmlns:xlink="http://www.w3.org/1999/xlink" viewBox="0 0 100 100"><defs><clipPath id="a"><polyline points="11.72 21.83 11.72 45.19 12.95 48.14 39.65 64.76 43.89 65.88 50 61.53 54.73 65.39 58.38 65.58 90.47 45.53 90.78 43.86 88.28 40.95 88.28 12.87 11.72 13.36" style="fill:none"/></clipPath></defs><title>sales-method_mail</title><polygon points="92.58 91.25 7.42 91.25 7.42 44.31 11.25 41.31 12.18 42.49 8.92 45.04 8.92 89.75 91.08 89.75 91.08 45.04 87.82 42.49 88.75 41.31 92.58 44.31 92.58 91.25" style="fill:#c80000"/><polygon points="91.4 91.12 50 62.44 8.6 91.12 7.74 89.88 50 60.62 92.26 89.88 91.4 91.12" style="fill:#c80000"/><rect x="24.85" y="34.99" width="1.5" height="41.05" transform="translate(-35.06 47.94) rotate(-58.12)" style="fill:#c80000"/><rect x="53.88" y="54.77" width="41.05" height="1.5" transform="translate(-18.1 47.72) rotate(-31.91)" style="fill:#c80000"/><polygon points="89.03 46.88 87.53 46.88 87.53 10.25 12.47 10.25 12.47 46.88 10.97 46.88 10.97 8.75 89.03 8.75 89.03 46.88" style="fill:#c80000"/><rect x="16.89" y="14.94" width="9.46" height="9.46" style="fill:#c80000"/><g style="clip-path:url(#a)"><g style="opacity:0.15"><rect x="30.49" y="14.94" width="52.62" height="4.73" style="fill:#c80000"/><rect x="30.49" y="24.43" width="52.62" height="4.73" style="fill:#c80000"/><rect x="16.89" y="33.92" width="66.22" height="4.73" style="fill:#c80000"/><rect x="16.89" y="43.41" width="66.22" height="4.73" style="fill:#c80000"/><rect x="16.89" y="52.91" width="66.22" height="4.73" style="fill:#c80000"/><rect x="16.89" y="62.4" width="66.22" height="4.73" style="fill:#c80000"/><rect x="16.89" y="71.89" width="66.22" height="4.73" style="fill:#c80000"/></g></g><polygon points="91.83 90.5 8.17 90.5 8.17 44.68 11.72 41.9 11.72 46.88 43.03 66.36 50 61.53 56.97 66.36 88.28 46.88 88.28 41.9 91.83 44.68 91.83 90.5" style="fill:#c80000;opacity:0.15"/></svg>