<svg xmlns="http://www.w3.org/2000/svg" xmlns:xlink="http://www.w3.org/1999/xlink" viewBox="0 0 100 100"><defs><linearGradient id="a" x1="50" y1="79.58" x2="50" y2="60.38" gradientUnits="userSpaceOnUse"><stop offset="0" stop-color="#c80000" stop-opacity="0.3"/><stop offset="0.38" stop-color="#c80000" stop-opacity="0.15"/><stop offset="0.76" stop-color="#c80000" stop-opacity="0.04"/><stop offset="1" stop-color="#c80000" stop-opacity="0"/></linearGradient></defs><title>sales-method_ecommerce</title><path d="M21.08,17.92V57.61H78.92V17.92ZM57.4,40.66a2,2,0,0,1-2,1.61H45.68a2,2,0,0,1-2-1.61L42,32.27H59Z" style="fill:#c80000;opacity:0.15"/><path d="M97.38,85.59H2.63V79.51L17.41,60.13V14.41H82.59V60.13L97.38,79.51ZM4.13,84.09H95.88V80L81.09,60.64V15.91H18.91V60.64L4.13,80Z" style="fill:#c80000"/><path d="M77.42,19.42v36.7H22.58V19.42H77.42m1.5-1.5H21.08v39.7H78.92V17.92Z" style="fill:#c80000"/><rect x="3.38" y="79.77" width="93.25" height="5.08" style="fill:#c80000;opacity:0.15"/><polygon points="96.63 79.58 3.38 79.58 18.16 60.38 81.84 60.38 96.63 79.58" style="fill:url(#a)"/><rect x="18.16" y="59.63" width="63.69" height="1.5" style="fill:#c80000"/><rect x="3.38" y="79.02" width="93.25" height="1.5" style="fill:#c80000"/><circle cx="45" cy="47.27" r="1" style="fill:#c80000;stroke:#c80000;stroke-miterlimit:10;stroke-width:1.5px"/><circle cx="56" cy="47.27" r="1" style="fill:#c80000;stroke:#c80000;stroke-miterlimit:10;stroke-width:1.5px"/><path d="M45.63,43a2.75,2.75,0,0,1-2.69-2.21L40.39,28H37v-1.5h4.61l1,5H59.91L58.14,40.8A2.77,2.77,0,0,1,55.39,43H45.63ZM42.92,33l1.5,7.49a1.23,1.23,0,0,0,1.25,1H55.4a1.25,1.25,0,0,0,1.26-1L58.09,33Z" style="fill:#c80000"/></svg>