<svg xmlns="http://www.w3.org/2000/svg" viewBox="0 0 100 100"><title>sales-method_phone</title><path d="M69.54,75.25l-.52,0a49.68,49.68,0,0,1-21.56-7.67,49,49,0,0,1-15-15,49.77,49.77,0,0,1-7.66-21.64A5.67,5.67,0,0,1,30,24.77l.5,0h7.38a5.69,5.69,0,0,1,5.66,4.87,30.83,30.83,0,0,0,1.68,6.76,5.66,5.66,0,0,1-1.28,6l-2.71,2.72a38.64,38.64,0,0,0,13.69,13.7l2.71-2.72a5.71,5.71,0,0,1,6-1.28,30.66,30.66,0,0,0,6.74,1.68,5.66,5.66,0,0,1,4.88,5.74v7.37a5.68,5.68,0,0,1-5.64,5.69Zm-31.65-49H30.46l-.37,0a4.17,4.17,0,0,0-3.77,4.52,48.11,48.11,0,0,0,7.43,21A47.37,47.37,0,0,0,48.27,66.3a48.09,48.09,0,0,0,20.9,7.43l.38,0a4.17,4.17,0,0,0,4.15-4.18v-7.4a4.16,4.16,0,0,0-3.58-4.23,32.53,32.53,0,0,1-7.07-1.76,4.16,4.16,0,0,0-4.4.93l-3.52,3.53-.5-.29a40,40,0,0,1-15-15l-.29-.5,3.53-3.52a4.16,4.16,0,0,0,.93-4.4A32.53,32.53,0,0,1,42,29.83,4.17,4.17,0,0,0,37.89,26.25Z" style="fill:#c80000"/><path d="M3.38,3.38V96.63H96.63V3.38ZM74.45,69.56a4.92,4.92,0,0,1-4.9,4.94l-.46,0a48.65,48.65,0,0,1-21.22-7.55A47.84,47.84,0,0,1,33.12,52.18a48.67,48.67,0,0,1-7.55-21.32A4.91,4.91,0,0,1,30,25.52l.44,0h7.38a4.93,4.93,0,0,1,4.92,4.23,31.08,31.08,0,0,0,1.72,6.91,4.93,4.93,0,0,1-1.11,5.19L40.25,45A39.33,39.33,0,0,0,55,59.7l3.12-3.12a4.93,4.93,0,0,1,5.19-1.11,31.08,31.08,0,0,0,6.91,1.72,4.93,4.93,0,0,1,4.23,5Z" style="fill:#c80000;opacity:0.15"/><path d="M97.38,97.38H2.63V2.63H97.38ZM4.13,95.88H95.88V4.13H4.13Z" style="fill:#c80000"/></svg>