<svg xmlns="http://www.w3.org/2000/svg" viewBox="0 0 100 100"><path fill="#c80000" opacity=".15" d="M34.5 61.52l36.27 9.56 3.48-13.22-39.75 3.66zm41.09-8.73l2.54-9.65-3.52-.93.98 10.58zM36.93 32.28l-7.7-2.03-.73 2.81 8.43-.78zM24.41 48.54l-2.54 9.65 3.52.93-.98-10.58z"/><path d="M25 63.15l-2.78-30.27 51.84-4.78 2.79 30.27zm-1.15-28.91l2.51 27.28L75.22 57l-2.51-27.27z" fill="#c80000"/><path fill="#c80000" opacity=".15" d="M26.526 47.13l18.73-1.728.266 2.878-18.73 1.727zm.57 6.242l10.12-.91.492 5.47-10.12.91z"/><path fill="#c80000" d="M23.38 37.393l50.357-4.645.67 7.27-50.356 4.644zM76.39 52.7l-1.45-.38 2.28-8.64-2.8-.74.38-1.45 4.25 1.12-2.66 10.09zM71.3 72l-36.99-9.75.38-1.45 35.54 9.37 3.3-12.51 1.45.39L71.3 72zM25.2 59.84l-4.23-1.11 2.58-10.95 1.46.35-2.24 9.52 2.81.74-.38 1.45zm4.02-26.59l-1.45-.38.93-3.54 8.42 2.22-.38 1.46-6.97-1.84-.55 2.08zm9.24-6.96L25.65 15.47 38.46 4.64v6.74h35.48v8H38.46zM28 15.47l9 7.59v-5.18h35.44v-5H37v-5z"/><path fill="#c80000" opacity=".15" d="M37.71 12.13V6.26l-10.89 9.21 10.89 9.21v-6.05h35.48v-6.5H37.71z"/><path d="M61.54 95.36v-6.74H26.06v-8h35.48v-6.91l12.81 10.82zm-34-8.24H63v5l9-7.6-9-7.59v5.18H27.56z" fill="#c80000"/><path fill="#c80000" opacity=".15" d="M62.29 87.87v5.87l10.9-9.21-10.9-9.21v6.05H26.82v6.5h35.47z"/></svg>