<svg xmlns="http://www.w3.org/2000/svg" xmlns:xlink="http://www.w3.org/1999/xlink" viewBox="0 0 100 100"><defs><linearGradient id="a" x1="30.09" y1="83.09" x2="30.09" y2="57.4" gradientUnits="userSpaceOnUse"><stop offset="0" stop-color="#c80000" stop-opacity=".4"/><stop offset="1" stop-color="#c80000" stop-opacity="0"/></linearGradient><linearGradient id="b" x1="69.9" y1="83.09" x2="69.9" y2="57.4" xlink:href="#a"/><linearGradient id="c" x1="50" y1="83.09" x2="50" y2="57.4" xlink:href="#a"/></defs><path d="M27.29 83.84H20v-27h7.32zm-5.82-1.5h4.32v-24h-4.32zm18.75 1.5h-7.31v-27h7.31zm-5.81-1.5h4.31v-24h-4.31zm32.68 1.5h-7.31v-27h7.31zm-5.81-1.5h4.31v-24h-4.31zM80 83.84h-7.29v-27H80zm-5.82-1.5h4.32v-24h-4.29z" fill="#c80000"/><path d="M84.13 58.31H15.87v-4.16h-6.6v-3.89l.41-.21L50 29.29l40.73 21v3.89h-6.6zm-66.76-1.5h65.26v-4.16h6.6v-1.47L50 31 10.77 51.18v1.47h6.6zM87.2 92.17H12.8v-5.66h3.07v-4.17h68.26v4.17h3.07zm-72.9-1.5h71.4V88h-3.07v-4.16H17.37V88H14.3z" fill="#c80000"/><path fill="#c80000" opacity=".15" d="M13.55 91.42v-4.16h3.07v-4.17h66.76v4.17h3.07v4.16h-72.9z"/><path fill="#c80000" d="M16.62 52.65h66.77v1.5H16.62zm0 33.86h66.77v1.5H16.62zM50 48.94a6.45 6.45 0 1 1 6.45-6.45A6.45 6.45 0 0 1 50 48.94zm0-11.4a4.95 4.95 0 1 0 5 5 5 5 0 0 0-5-5z"/><path d="M50 30.13L10 50.72v2.68h6.6v4.16h66.78V53.4H90v-2.68zm0 18.06a5.7 5.7 0 1 1 5.7-5.7 5.7 5.7 0 0 1-5.7 5.7z" fill="#c80000" opacity=".15"/><path fill="url(#a)" d="M26.27 57.4h7.63v25.69h-7.63z"/><path fill="url(#b)" d="M66.34 57.4h7.13v25.69h-7.13z"/><path fill="url(#c)" d="M39.47 57.4h21.05v25.69H39.47z"/><path fill="#c80000" d="M52.88 31.04h-1.5v-3.52h-2.76v3.52h-1.5v-5.02h5.76v5.02z"/><path fill="#c80000" opacity=".15" d="M52.13 31.04v-4.27h-4.26v4.27"/><path fill="#c80000" d="M49.25 9.76h1.5v16.67h-1.5z"/><path d="M51.61 19.91a8.75 8.75 0 0 1-1.76-.17.75.75 0 0 1-.6-.74v-8a.74.74 0 0 1 1.15-.63c2.89 1.84 5.76 1.87 8.81 1.89s6.35.06 9.59 2.13a.75.75 0 0 1-.55 1.37c-2.84-.57-5.71.66-8.75 2-2.57 1.02-5.21 2.15-7.89 2.15zm-.86-1.55c2.65.31 5.33-.85 8.15-2.06a28.14 28.14 0 0 1 6-2.06 23 23 0 0 0-5.7-.53c-2.75 0-5.58-.05-8.44-1.47z" fill="#c80000"/><path d="M50 11v8c6.13 1.24 12.27-5.26 18.4-4-6.13-3.94-12.27-.13-18.4-4z" fill="#c80000" opacity=".15"/><circle cx="50" cy="9.76" r="1.18" fill="#c80000"/></svg>