<svg xmlns="http://www.w3.org/2000/svg" viewBox="0 0 100 100"><path d="M4.16 21.71v55.75h91.68V21.71zM94 75.32H6v-45h88z" fill="#c80000" opacity=".15"/><path d="M95.84 79H3.41V21h93.18v58zM4.91 77.54h90.18V22.46H4.91z" fill="#c80000"/><path fill="#c80000" d="M45.11 34.8H57v3.17H45.11zm0 5.64H57v1.28H45.11zm0 3.64H57v1.28H45.11zm0 3.64H57V49H45.11zm0 3.64H57v1.28H45.11zm0 3.64H57v1.28H45.11zm0 3.64H57v1.28H45.11zm0 3.64H57v1.28H45.11zm0 3.64H57v1.28H45.11zm0 3.64H57v1.28H45.11zm34-34.76H91v3.17H79.11zm0 5.64H91v1.28H79.11zm0 3.64H91v1.28H79.11zm0 3.64H91V49H79.11zm0 3.64H91v1.28H79.11zm0 3.64H91v1.28H79.11zm0 3.64H91v1.28H79.11zm0 3.64H91v1.28H79.11zm0 3.64H91v1.28H79.11zm0 3.64H91v1.28H79.11zM58.74 34.8h5.39v3.17h-5.39zm0 5.64h5.39v1.28h-5.39zm0 3.64h5.39v1.28h-5.39zm0 3.64h5.39V49h-5.39zm0 3.64h5.39v1.28h-5.39zm0 3.64h5.39v1.28h-5.39zm0 3.64h5.39v1.28h-5.39zm0 3.64h5.39v1.28h-5.39zm0 3.64h5.39v1.28h-5.39zm0 3.64h5.39v1.28h-5.39zm6.75-34.76h5.39v3.17h-5.39zm0 5.64h5.39v1.28h-5.39zm0 3.64h5.39v1.28h-5.39zm0 3.64h5.39V49h-5.39zm0 3.64h5.39v1.28h-5.39zm0 3.64h5.39v1.28h-5.39zm0 3.64h5.39v1.28h-5.39zm0 3.64h5.39v1.28h-5.39zm0 3.64h5.39v1.28h-5.39zm0 3.64h5.39v1.28h-5.39zm6.75-34.76h5.39v3.17h-5.39zm0 5.64h5.39v1.28h-5.39zm0 3.64h5.39v1.28h-5.39zm0 3.64h5.39V49h-5.39zm0 3.64h5.39v1.28h-5.39zm0 3.64h5.39v1.28h-5.39zm0 3.64h5.39v1.28h-5.39zm0 3.64h5.39v1.28h-5.39zm0 3.64h5.39v1.28h-5.39zm0 3.64h5.39v1.28h-5.39z"/><circle cx="7.23" cy="25.98" r="1.22" fill="#c80000"/><circle cx="11.18" cy="25.98" r="1.22" fill="#c80000"/><circle cx="15.13" cy="25.98" r="1.22" fill="#c80000"/><path d="M19.54 36.66a9.42 9.42 0 0 0-1.78 13.76L25 44.36z" fill="#c80000" opacity=".2"/><path d="M17.76 50.42a9.44 9.44 0 0 0 11.35 2.41L25 44.36z" fill="#c80000" opacity=".5"/><path d="M34.79 44.31a9.93 9.93 0 0 0-15.67-8.1l5.74 8.1 4.35 8.93a10 10 0 0 0 5.58-8.93z" fill="#c80000"/><path fill="#c80000" opacity=".2" d="M9.12 68.11h4.61v3.13H9.12z"/><path fill="#c80000" opacity=".5" d="M15.13 65.89h4.61v5.35h-4.61zm6-1.85h4.61v7.21h-4.61zm6-4.74h4.61v11.94h-4.61z"/><path fill="#c80000" d="M33.14 55.64h4.61v15.6h-4.61z"/></svg>