<svg xmlns="http://www.w3.org/2000/svg" viewBox="0 0 100 100"><path fill="#c80000" opacity=".15" d="M26.65 43.31L3.38 56.69v26.74l23.27 13.44L50 83.43V56.69L26.65 43.31z"/><path d="M26.65 97.73l-24-13.87V56.25l24-13.8 24.1 13.8v27.61zM4.13 83l22.52 13 22.6-13V57.12l-22.6-12.94L4.13 57.12z" fill="#c80000"/><path fill="#c80000" d="M26.65 70.92L3 57.34l.75-1.3 22.9 13.15 22.98-13.16.74 1.31-23.72 13.58z"/><path fill="#c80000" d="M25.9 70.06h1.5v26.81h-1.5z"/><path fill="#c80000" opacity=".15" d="M49.96 3.13L26.69 16.5v26.75l23.27 13.44 23.35-13.44V16.5L49.96 3.13z"/><path d="M50 57.55L26 43.68V16.07l24-13.8 24.1 13.8v27.61zM27.44 42.82l22.56 13 22.6-13V16.94L50 4 27.44 16.94z" fill="#c80000"/><path fill="#c80000" d="M49.96 30.74L26.31 17.16l.75-1.31 22.9 13.16 22.98-13.16.75 1.31-23.73 13.58z"/><path fill="#c80000" d="M49.21 29.88h1.5v26.81h-1.5z"/><path fill="#c80000" opacity=".15" d="M73.28 43.31L50 56.69v26.74l23.28 13.44 23.35-13.44V56.69L73.28 43.31z"/><path d="M73.27 97.73l-24-13.87V56.25l24-13.8 24.11 13.8v27.61zM50.75 83l22.52 13 22.61-13V57.12L73.27 44.18 50.75 57.12z" fill="#c80000"/><path fill="#c80000" d="M73.27 70.92L49.63 57.34l.74-1.3 22.91 13.15 22.97-13.16.75 1.31-23.73 13.58z"/><path fill="#c80000" d="M72.52 70.06h1.5v26.81h-1.5z"/></svg>