<svg xmlns="http://www.w3.org/2000/svg" xmlns:xlink="http://www.w3.org/1999/xlink" viewBox="0 0 100 100"><defs><linearGradient id="a" x1="12.88" y1="8.18" x2="19.21" y2="14.52" gradientUnits="userSpaceOnUse"><stop offset="0" stop-color="currentColor" stop-opacity=".1"/><stop offset="1" stop-color="currentColor" stop-opacity=".6"/></linearGradient><linearGradient id="b" x1="78.52" y1="5.92" x2="89.39" y2="16.79" xlink:href="#a"/><linearGradient id="c" x1="50" y1="15.73" x2="50" y2="2.75" gradientUnits="userSpaceOnUse"><stop offset="0" stop-color="currentColor" stop-opacity=".4"/><stop offset="1" stop-color="currentColor" stop-opacity=".2"/></linearGradient></defs><path d="M91.2 97.38H8.8V15.5L17.91 2h64.18l9.11 13.5zm-80.9-1.5h79.4V16L81.29 3.5H18.71L10.3 16z" fill="currentColor"/><path d="M50 76.69a32.8 32.8 0 0 1-19.49-6l-.3-.22v-.38a33.45 33.45 0 0 1 .24-4c.2-1.27 1.37-2.81 8.52-5.43 1.2-.44 2.16-.75 2.92-1 2.49-.81 2.49-.81 2.48-3v-.7a2 2 0 0 0-.51-1.62c-.53-.66-1.24-1.56-1.77-4.62a2.46 2.46 0 0 0-.37-1.17 7.55 7.55 0 0 1-1-2.76 3.74 3.74 0 0 1 .08-2.34 1 1 0 0 0 .1-.44l-.07-.63c-.06-.63-.13-1.37-.24-2.61a7.92 7.92 0 0 1 2.15-5.49A9.45 9.45 0 0 1 50 31.31a9.44 9.44 0 0 1 7.26 2.9 7.9 7.9 0 0 1 2.17 5.48c-.11 1.24-.18 2-.24 2.59l-.07.66a1.06 1.06 0 0 0 .09.44 3.65 3.65 0 0 1 .09 2.34 7.55 7.55 0 0 1-1 2.77 2.45 2.45 0 0 0-.37 1.16c-.53 3.06-1.24 4-1.77 4.62a2 2 0 0 0-.51 1.62v.7c0 2.18 0 2.18 2.47 3 .77.25 1.73.57 2.93 1 7.13 2.62 8.31 4.16 8.52 5.43a35.23 35.23 0 0 1 .23 4v.38l-.3.22A32.8 32.8 0 0 1 50 76.69zm-18.28-7c10.17 7.37 26.39 7.37 36.56 0a28.76 28.76 0 0 0-.2-3.42c-.12-.72-1.53-2-7.56-4.26-1.18-.44-2.12-.75-2.88-1-3.28-1.08-3.51-1.37-3.5-4.43v-.69a3.39 3.39 0 0 1 .86-2.55c.44-.57 1-1.27 1.46-3.94a4 4 0 0 1 .54-1.73 5.82 5.82 0 0 0 .79-2.29 2.19 2.19 0 0 0 0-1.5 2.33 2.33 0 0 1-.17-1.08l.07-.67c.06-.62.13-1.34.24-2.57a6.44 6.44 0 0 0-1.79-4.34A8 8 0 0 0 50 32.81a8 8 0 0 0-6.16 2.42 6.39 6.39 0 0 0-1.77 4.34c.11 1.24.18 2 .25 2.6l.06.64a2.46 2.46 0 0 1-.17 1.08 2.23 2.23 0 0 0 0 1.5 6.21 6.21 0 0 0 .79 2.28 3.86 3.86 0 0 1 .6 1.74c.46 2.67 1 3.37 1.46 3.94a3.37 3.37 0 0 1 .84 2.55v.69c0 3.07-.22 3.36-3.51 4.44-.75.25-1.69.56-2.87 1-6 2.21-7.44 3.53-7.56 4.26a28.64 28.64 0 0 0-.24 3.4z" fill="currentColor"/><path d="M9.55 15.73v80.9h80.9v-80.9l-8.76-13H18.31zM31 70.06a31.7 31.7 0 0 1 .23-3.9c.17-1.08 1.68-2.52 8-4.85s5.88-1.17 5.88-5.41c0-2.75-1.4-1.15-2.29-6.37-.35-2.06-.62-.69-1.38-4-.39-1.73.27-1.86.19-2.68s-.16-1.57-.31-3.24c-.18-2.09 1.75-7.58 8.68-7.58s8.86 5.49 8.69 7.57c-.15 1.68-.23 2.42-.31 3.24s.58 1 .19 2.68c-.76 3.29-1 1.92-1.38 4-.89 5.22-2.29 3.62-2.29 6.37 0 4.23-.39 3.11 5.88 5.41s7.86 3.77 8 4.85a33.35 33.35 0 0 1 .22 3.91c-10.49 7.88-27.51 7.88-38 0z" fill="currentColor" opacity=".15"/><path fill="currentColor" d="M9.55 14.98h80.9v1.5H9.55z"/><path fill="currentColor" d="M17.56 2.75h1.5v12.98h-1.5zm63.38 0h1.5v12.98h-1.5z"/><path fill="url(#a)" d="M18.31 2.75L9.55 15.73H18l.31-12.98z"/><path fill="url(#b)" d="M81.69 2.75l8.76 12.98H82l-.31-12.98z"/><path fill="url(#c)" d="M18.31 2.75h63.38v12.98H18.31z"/></svg>