<svg xmlns="http://www.w3.org/2000/svg" viewBox="0 0 100 100" color="#c80000"><path fill="currentColor" opacity=".15" d="M49.85 9.34L3.38 36.28v27.44l46.65 26.94 46.6-26.94V36.28L49.85 9.34z"/><path d="M50 91.52L2.63 64.15v-28.3L49.85 8.48l47.53 27.37v28.3zM4.13 63.28L50 89.79l45.88-26.51V36.72l-46-26.51L4.13 36.72z" fill="currentColor"/><path fill="currentColor" d="M50.03 64.09L3 36.93l.75-1.3 46.28 26.73 46.22-26.73.75 1.3-46.97 27.16z"/><path fill="#c80000" d="M49.28 63.22h1.5v27.43h-1.5z"/><path fill="currentColor" d="M67.56 19.95L21.2 46.89v14.58l9.03 5.15V52.04L76.66 25.1l-9.1-5.15zM55.94 66.56v7.62l12.95-7.49v-7.62"/></svg>