<svg xmlns="http://www.w3.org/2000/svg" xmlns:xlink="http://www.w3.org/1999/xlink" viewBox="0 0 100 100"><defs><linearGradient id="a" x1="54.06" y1="19.79" x2="54.06" y2="8.25" gradientUnits="userSpaceOnUse"><stop offset="0" stop-color="#c80000" stop-opacity="0.4"/><stop offset="1" stop-color="#c80000" stop-opacity="0.2"/></linearGradient></defs><title>offer-type_recurring</title><polygon points="87.44 92.5 13.98 92.5 13.98 31.04 15.48 31.04 15.48 91 85.94 91 85.94 20.02 78.5 9 22.92 9 21.64 10.89 20.4 10.05 22.12 7.5 79.29 7.5 87.44 19.57 87.44 92.5" style="fill:#c80000"/><rect x="25.73" y="19.04" width="60.95" height="1.5" style="fill:#c80000"/><path d="M26,19.79h60.7L78.89,8.25H22.52L21.43,9.86a25.43,25.43,0,0,1,3.45,4.87" style="fill:url(#a)"/><rect x="60.34" y="24.09" width="22.98" height="8.1" style="fill:#c80000"/><path d="M74.29,68H27.13V47.14H74.29Zm-45.66-1.5H72.79V48.64H28.63Z" style="fill:#c80000"/><path d="M14.73,31V91.75h72v-72H26A11,11,0,0,1,14.73,31ZM73.54,67.21H27.88V47.89H73.54Z" style="fill:#c80000;opacity:0.15"/><rect x="32.36" y="51.56" width="36.69" height="2.89" style="fill:#c80000;opacity:0.15"/><rect x="32.36" y="56.17" width="36.69" height="2.89" style="fill:#c80000;opacity:0.15"/><rect x="32.36" y="60.78" width="22.69" height="2.89" style="fill:#c80000;opacity:0.15"/><path d="M14.73,31.79a12,12,0,1,1,12-12A12,12,0,0,1,14.73,31.79Zm0-22.49a10.5,10.5,0,1,0,10.5,10.49A10.51,10.51,0,0,0,14.73,9.3Z" style="fill:#c80000"/><path d="M9.71,19.76H8.21a6.52,6.52,0,0,1,11.07-4.67l-1.05,1.07a5,5,0,0,0-8.52,3.6Z" style="fill:#c80000"/><path d="M14.73,26.28a6.48,6.48,0,0,1-4.48-1.79l1-1.09a5,5,0,0,0,8.47-3.64h1.5A6.53,6.53,0,0,1,14.73,26.28Z" style="fill:#c80000"/><polygon points="20.24 17.12 16.19 17.12 16.19 15.62 18.74 15.62 18.74 13.08 20.24 13.08 20.24 17.12" style="fill:#c80000"/><polygon points="10.63 26.35 9.13 26.35 9.13 22.31 13.18 22.31 13.18 23.81 10.63 23.81 10.63 26.35" style="fill:#c80000"/></svg>