<svg xmlns="http://www.w3.org/2000/svg" viewBox="0 0 100 100"><title>offer-type_free-trial</title><polygon points="45.38 32.98 12.51 39.69 26.58 84 59.45 77.29 45.38 32.98" style="fill:#c80000;opacity:0.15"/><polygon points="12.51 39.69 41.55 20.21 74.42 13.5 45.38 32.98 12.51 39.69" style="fill:#c80000;opacity:0.15"/><polygon points="59.45 77.29 45.38 32.98 74.42 13.5 88.5 57.81 59.45 77.29" style="fill:#c80000;opacity:0.15"/><path d="M26.06,84.87,11.62,39.38,41.25,19.5l.15,0,33.54-6.84L89.38,58.12,59.75,78l-.15,0ZM13.39,40l13.7,43.13,32.07-6.54L87.61,57.5,73.91,14.37,41.84,20.91Z" style="fill:#c80000"/><polygon points="12.65 40.43 12.36 38.96 45.09 32.28 74.01 12.88 74.84 14.12 45.68 33.69 45.53 33.72 12.65 40.43" style="fill:#c80000"/><rect x="51.67" y="31.9" width="1.5" height="46.49" transform="translate(-14.23 18.45) rotate(-17.62)" style="fill:#c80000"/><polyline points="77.63 65.18 63.56 20.88 56.81 25.64 70.88 69.95" style="fill:#c80000"/><polyline points="46.23 79.47 32.38 35.83 24.19 37.52 38.05 81.15" style="fill:#c80000"/><polyline points="51.49 18.25 24.19 36.54 26.45 36.85 32.16 35.18 59.45 16.89" style="fill:#c80000"/><polyline points="61.81 21.22 30.66 27.58 24.82 31.5 55.98 25.14" style="fill:#c80000"/><ellipse cx="48.06" cy="20" rx="8.53" ry="3.58" transform="translate(-1.51 35.89) rotate(-40.37)" style="fill:#fff"/><path d="M43.26,26.92a3,3,0,0,1-1.95-.61,2.41,2.41,0,0,1-.89-1.91c-.07-2,1.58-4.74,4.3-7.22,3.28-3,7.93-5.23,10.1-3.49h0a2.41,2.41,0,0,1,.89,1.91c.06,2-1.59,4.74-4.31,7.22C48.92,25.08,45.64,26.92,43.26,26.92Zm9.62-12.34c-1.63,0-4.51,1.31-7.15,3.71s-3.86,4.81-3.82,6.07a1,1,0,0,0,.33.78c1.1.88,4.82-.4,8.15-3.43,2.7-2.45,3.86-4.81,3.82-6.07a1,1,0,0,0-.33-.78h0A1.55,1.55,0,0,0,52.88,14.58Z" style="fill:#c80000"/><ellipse cx="32.66" cy="24.2" rx="3.58" ry="8.53" transform="translate(1.98 50.87) rotate(-77.55)" style="fill:#fff"/><path d="M35.88,28.9A19.76,19.76,0,0,1,31,28.26c-3.57-.91-6.32-2.59-7.19-4.37a2.44,2.44,0,0,1-.11-2.1C24.83,19.24,30,19,34.29,20.15c3.56.91,6.32,2.59,7.19,4.36a2.45,2.45,0,0,1,.1,2.11C40.89,28.22,38.57,28.9,35.88,28.9ZM29.49,21c-2.32,0-4,.55-4.38,1.38a1,1,0,0,0,.07.84c.56,1.13,2.69,2.67,6.22,3.58,4.36,1.12,8.25.5,8.81-.79a1,1,0,0,0-.08-.85c-.55-1.12-2.69-2.67-6.22-3.57A17.84,17.84,0,0,0,29.49,21Z" style="fill:#c80000"/><path d="M18,30.73a7.53,7.53,0,0,1-2.25-.34c-4.11-1.27-6.13-5.67-6.22-5.85l1.37-.62s1.84,4,5.31,5a7.58,7.58,0,0,0,6.26-1.16c8.42-5.13,14.05-3.82,18.67-2.19L40.65,27c-4.5-1.59-9.54-2.73-17.4,2A10.12,10.12,0,0,1,18,30.73Z" style="fill:#c80000"/><path d="M42.58,26.66l-.67-1.35a13.38,13.38,0,0,0,5.87-7q.31-.86.57-1.62c1.5-4.37,2.4-7,11.67-9.32l.37,1.46C51.91,11,51.19,13,49.77,17.18c-.18.53-.37,1.08-.58,1.66A14.77,14.77,0,0,1,42.58,26.66Z" style="fill:#c80000"/><ellipse cx="55.96" cy="89.24" rx="30.79" ry="3.75" style="fill:#c80000;opacity:0.15"/></svg>