<svg xmlns="http://www.w3.org/2000/svg" viewBox="0 0 100 100"><path fill="#c80000" opacity=".15" d="M45.38 32.98l-32.87 6.71L26.58 84l32.87-6.71-14.07-44.31zm-32.87 6.71l29.04-19.48 32.87-6.71-29.04 19.48-32.87 6.71zm46.94 37.6L45.38 32.98 74.42 13.5 88.5 57.81 59.45 77.29z"/><path d="M26.06 84.87L11.62 39.38 41.25 19.5h.15l33.54-6.84 14.44 45.46L59.75 78h-.15zM13.39 40l13.7 43.13 32.07-6.54L87.61 57.5l-13.7-43.13-32.07 6.54z" fill="#c80000"/><path fill="#c80000" d="M12.65 40.43l-.29-1.47 32.73-6.68 28.92-19.4.83 1.24-29.16 19.57-.15.03-32.88 6.71z"/><path fill="#c80000" d="M44.672 33.213l1.43-.454 14.072 44.309-1.43.454zM77.63 65.18l-14.07-44.3-6.75 4.76 14.07 44.31m-24.65 9.52L32.38 35.83l-8.19 1.69 13.86 43.63m13.44-62.9l-27.3 18.29 2.26.31 5.71-1.67 27.29-18.29"/><path fill="#c80000" d="M61.81 21.22l-31.15 6.36-5.84 3.92 31.16-6.36"/><ellipse cx="48.06" cy="20" rx="8.53" ry="3.58" transform="rotate(-40.37 48.058 19.999)" fill="#fff"/><path d="M43.26 26.92a3 3 0 0 1-1.95-.61 2.41 2.41 0 0 1-.89-1.91c-.07-2 1.58-4.74 4.3-7.22 3.28-3 7.93-5.23 10.1-3.49a2.41 2.41 0 0 1 .89 1.91c.06 2-1.59 4.74-4.31 7.22-2.48 2.26-5.76 4.1-8.14 4.1zm9.62-12.34c-1.63 0-4.51 1.31-7.15 3.71s-3.86 4.81-3.82 6.07a1 1 0 0 0 .33.78c1.1.88 4.82-.4 8.15-3.43 2.7-2.45 3.86-4.81 3.82-6.07a1 1 0 0 0-.33-.78 1.55 1.55 0 0 0-1-.28z" fill="#c80000"/><ellipse cx="32.66" cy="24.2" rx="3.58" ry="8.53" transform="rotate(-77.55 32.653 24.203)" fill="#fff"/><path d="M35.88 28.9a19.76 19.76 0 0 1-4.88-.64c-3.57-.91-6.32-2.59-7.19-4.37a2.44 2.44 0 0 1-.11-2.1c1.13-2.55 6.3-2.79 10.59-1.64 3.56.91 6.32 2.59 7.19 4.36a2.45 2.45 0 0 1 .1 2.11c-.69 1.6-3.01 2.28-5.7 2.28zM29.49 21c-2.32 0-4 .55-4.38 1.38a1 1 0 0 0 .07.84c.56 1.13 2.69 2.67 6.22 3.58 4.36 1.12 8.25.5 8.81-.79a1 1 0 0 0-.08-.85c-.55-1.12-2.69-2.67-6.22-3.57a17.84 17.84 0 0 0-4.42-.59z" fill="#c80000"/><path d="M18 30.73a7.53 7.53 0 0 1-2.25-.34c-4.11-1.27-6.13-5.67-6.22-5.85l1.37-.62s1.84 4 5.31 5a7.58 7.58 0 0 0 6.26-1.16c8.42-5.13 14.05-3.82 18.67-2.19L40.65 27c-4.5-1.59-9.54-2.73-17.4 2A10.12 10.12 0 0 1 18 30.73zm24.58-4.07l-.67-1.35a13.38 13.38 0 0 0 5.87-7q.31-.86.57-1.62c1.5-4.37 2.4-7 11.67-9.32l.37 1.46C51.91 11 51.19 13 49.77 17.18c-.18.53-.37 1.08-.58 1.66a14.77 14.77 0 0 1-6.61 7.82z" fill="#c80000"/><ellipse cx="55.96" cy="89.24" rx="30.79" ry="3.75" fill="#c80000" opacity=".15"/></svg>