<svg xmlns="http://www.w3.org/2000/svg" viewBox="0 0 100 100"><defs><linearGradient id="a" x1="54.06" y1="19.79" x2="54.06" y2="8.25" gradientUnits="userSpaceOnUse"><stop offset="0" stop-color="#c80000" stop-opacity=".4"/><stop offset="1" stop-color="#c80000" stop-opacity=".2"/></linearGradient></defs><path fill="#c80000" d="M87.44 92.5H13.98V31.04h1.5V91h70.46V20.02L78.5 9H22.92l-1.28 1.89-1.24-.84 1.72-2.55h57.17l8.15 12.07V92.5z"/><path fill="#c80000" d="M25.73 19.04h60.95v1.5H25.73z"/><path d="M26 19.79h60.7L78.89 8.25H22.52l-1.09 1.61a25.43 25.43 0 0 1 3.45 4.87" fill="url(#a)"/><path fill="#c80000" d="M60.34 24.09h22.98v8.1H60.34zM74.29 68H27.13V47.14h47.16zm-45.66-1.5h44.16V48.64H28.63z"/><path d="M14.73 31v60.75h72v-72H26A11 11 0 0 1 14.73 31zm58.81 36.21H27.88V47.89h45.66z" fill="#c80000" opacity=".15"/><path fill="#c80000" opacity=".15" d="M32.36 51.56h36.69v2.89H32.36zm0 4.61h36.69v2.89H32.36zm0 4.61h22.69v2.89H32.36z"/><path d="M14.73 31.79a12 12 0 1 1 12-12 12 12 0 0 1-12 12zm0-22.49a10.5 10.5 0 1 0 10.5 10.49A10.51 10.51 0 0 0 14.73 9.3z" fill="#c80000"/><path d="M9.71 19.76h-1.5a6.52 6.52 0 0 1 11.07-4.67l-1.05 1.07a5 5 0 0 0-8.52 3.6zm5.02 6.52a6.48 6.48 0 0 1-4.48-1.79l1-1.09a5 5 0 0 0 8.47-3.64h1.5a6.53 6.53 0 0 1-6.49 6.52z" fill="#c80000"/><path fill="#c80000" d="M20.24 17.12h-4.05v-1.5h2.55v-2.54h1.5v4.04zm-9.61 9.23h-1.5v-4.04h4.05v1.5h-2.55v2.54z"/></svg>