<svg xmlns="http://www.w3.org/2000/svg" xmlns:xlink="http://www.w3.org/1999/xlink" viewBox="0 0 100 100"><defs><linearGradient id="a" x1="30.09" y1="83.09" x2="30.09" y2="57.4" gradientUnits="userSpaceOnUse"><stop offset="0" stop-color="#c80000" stop-opacity="0.4"/><stop offset="1" stop-color="#c80000" stop-opacity="0"/></linearGradient><linearGradient id="b" x1="69.9" y1="83.09" x2="69.9" y2="57.4" xlink:href="#a"/><linearGradient id="c" x1="50" y1="83.09" x2="50" y2="57.4" xlink:href="#a"/></defs><title>data-source_merchant-account-provider</title><path d="M27.29,83.84H20v-27h7.32Zm-5.82-1.5h4.32v-24H21.47Z" style="fill:#c80000"/><path d="M40.22,83.84H32.91v-27h7.31Zm-5.81-1.5h4.31v-24H34.41Z" style="fill:#c80000"/><path d="M67.09,83.84H59.78v-27h7.31Zm-5.81-1.5h4.31v-24H61.28Z" style="fill:#c80000"/><path d="M80,83.84H72.71v-27H80Zm-5.82-1.5h4.32v-24H74.21Z" style="fill:#c80000"/><path d="M84.13,58.31H15.87V54.15H9.27V50.26l.41-.21L50,29.29l40.73,21v3.89h-6.6Zm-66.76-1.5H82.63V52.65h6.6V51.18L50,31,10.77,51.18v1.47h6.6Z" style="fill:#c80000"/><path d="M87.2,92.17H12.8V86.51h3.07V82.34H84.13v4.17H87.2Zm-72.9-1.5H85.7V88H82.63V83.84H17.37V88H14.3Z" style="fill:#c80000"/><polygon points="13.55 91.42 13.55 87.26 16.62 87.26 16.62 83.09 83.38 83.09 83.38 87.26 86.45 87.26 86.45 91.42 13.55 91.42" style="fill:#c80000;opacity:0.15"/><rect x="16.62" y="52.65" width="66.77" height="1.5" style="fill:#c80000"/><rect x="16.62" y="86.51" width="66.77" height="1.5" style="fill:#c80000"/><path d="M50,48.94a6.45,6.45,0,1,1,6.45-6.45A6.45,6.45,0,0,1,50,48.94Zm0-11.4a4.95,4.95,0,1,0,5,5A5,5,0,0,0,50,37.54Z" style="fill:#c80000"/><path d="M50,30.13,10,50.72V53.4h6.6v4.16H83.38V53.4H90V50.72Zm0,18.06a5.7,5.7,0,1,1,5.7-5.7A5.7,5.7,0,0,1,50,48.19Z" style="fill:#c80000;opacity:0.15"/><rect x="26.27" y="57.4" width="7.63" height="25.69" style="fill:url(#a)"/><rect x="66.34" y="57.4" width="7.13" height="25.69" style="fill:url(#b)"/><rect x="39.47" y="57.4" width="21.05" height="25.69" style="fill:url(#c)"/><polygon points="52.88 31.04 51.38 31.04 51.38 27.52 48.62 27.52 48.62 31.04 47.12 31.04 47.12 26.02 52.88 26.02 52.88 31.04" style="fill:#c80000"/><polyline points="52.13 31.04 52.13 26.77 47.87 26.77 47.87 31.04" style="fill:#c80000;opacity:0.15"/><rect x="49.25" y="9.76" width="1.5" height="16.67" style="fill:#c80000"/><path d="M51.61,19.91a8.75,8.75,0,0,1-1.76-.17.75.75,0,0,1-.6-.74V11a.74.74,0,0,1,1.15-.63c2.89,1.84,5.76,1.87,8.81,1.89s6.35.06,9.59,2.13a.75.75,0,0,1-.55,1.37c-2.84-.57-5.71.66-8.75,2C56.93,18.78,54.29,19.91,51.61,19.91Zm-.86-1.55c2.65.31,5.33-.85,8.15-2.06a28.14,28.14,0,0,1,6-2.06,23,23,0,0,0-5.7-.53c-2.75,0-5.58-.05-8.44-1.47Z" style="fill:#c80000"/><path d="M50,11V19c6.13,1.24,12.27-5.26,18.4-4C62.27,11.06,56.13,14.87,50,11Z" style="fill:#c80000;opacity:0.15"/><circle cx="50" cy="9.76" r="1.18" style="fill:#c80000"/></svg>