<svg xmlns="http://www.w3.org/2000/svg" viewBox="0 0 100 100"><title>data-source_payment-gateway</title><polygon points="34.5 61.52 70.77 71.08 74.25 57.86 34.5 61.52" style="fill:#c80000;opacity:0.15"/><polygon points="75.59 52.79 78.13 43.14 74.61 42.21 75.59 52.79" style="fill:#c80000;opacity:0.15"/><polygon points="36.93 32.28 29.23 30.25 28.5 33.06 36.93 32.28" style="fill:#c80000;opacity:0.15"/><polygon points="24.41 48.54 21.87 58.19 25.39 59.12 24.41 48.54" style="fill:#c80000;opacity:0.15"/><path d="M25,63.15,22.22,32.88,74.06,28.1l2.79,30.27ZM23.85,34.24l2.51,27.28L75.22,57,72.71,29.73Z" style="fill:#c80000"/><rect x="26.62" y="46.26" width="18.81" height="2.89" transform="translate(-4.23 3.51) rotate(-5.27)" style="fill:#c80000;opacity:0.15"/><rect x="27.31" y="52.62" width="10.12" height="5.47" transform="matrix(1, -0.09, 0.09, 1, -4.95, 3.21)" style="fill:#c80000;opacity:0.15"/><rect x="23.61" y="35.06" width="50.57" height="7.3" transform="translate(-3.35 4.65) rotate(-5.27)" style="fill:#c80000"/><polygon points="76.39 52.7 74.94 52.32 77.22 43.68 74.42 42.94 74.8 41.49 79.05 42.61 76.39 52.7" style="fill:#c80000"/><polygon points="71.3 72 34.31 62.25 34.69 60.8 70.23 70.17 73.53 57.66 74.98 58.05 71.3 72" style="fill:#c80000"/><polygon points="25.2 59.84 20.97 58.73 23.55 47.78 25.01 48.13 22.77 57.65 25.58 58.39 25.2 59.84" style="fill:#c80000"/><polygon points="29.22 33.25 27.77 32.87 28.7 29.33 37.12 31.55 36.74 33.01 29.77 31.17 29.22 33.25" style="fill:#c80000"/><path d="M38.46,26.29,25.65,15.47,38.46,4.64v6.74H73.94v8H38.46ZM28,15.47l9,7.59V17.88H72.44v-5H37v-5Z" style="fill:#c80000"/><polygon points="37.71 12.13 37.71 6.26 26.82 15.47 37.71 24.68 37.71 18.63 73.19 18.63 73.19 12.13 37.71 12.13" style="fill:#c80000;opacity:0.15"/><path d="M61.54,95.36V88.62H26.06v-8H61.54V73.71L74.35,84.53Zm-34-8.24H63v5l9-7.6-9-7.59v5.18H27.56Z" style="fill:#c80000"/><polygon points="62.29 87.87 62.29 93.74 73.19 84.53 62.29 75.32 62.29 81.37 26.82 81.37 26.82 87.87 62.29 87.87" style="fill:#c80000;opacity:0.15"/></svg>