<svg xmlns="http://www.w3.org/2000/svg" viewBox="0 0 100 100"><title>data-source_sales-information-resource</title><path d="M4.16,21.71V77.46H95.84V21.71ZM94,75.32H6v-45H94Z" style="fill:#c80000;opacity:0.15"/><path d="M95.84,79H3.41V21H96.59V79ZM4.91,77.54H95.09V22.46H4.91Z" style="fill:#c80000"/><rect x="45.11" y="34.8" width="11.89" height="3.17" style="fill:#c80000"/><rect x="45.11" y="40.44" width="11.89" height="1.28" style="fill:#c80000"/><rect x="45.11" y="44.08" width="11.89" height="1.28" style="fill:#c80000"/><rect x="45.11" y="47.72" width="11.89" height="1.28" style="fill:#c80000"/><rect x="45.11" y="51.36" width="11.89" height="1.28" style="fill:#c80000"/><rect x="45.11" y="55" width="11.89" height="1.28" style="fill:#c80000"/><rect x="45.11" y="58.64" width="11.89" height="1.28" style="fill:#c80000"/><rect x="45.11" y="62.28" width="11.89" height="1.28" style="fill:#c80000"/><rect x="45.11" y="65.92" width="11.89" height="1.28" style="fill:#c80000"/><rect x="45.11" y="69.56" width="11.89" height="1.28" style="fill:#c80000"/><rect x="79.11" y="34.8" width="11.89" height="3.17" style="fill:#c80000"/><rect x="79.11" y="40.44" width="11.89" height="1.28" style="fill:#c80000"/><rect x="79.11" y="44.08" width="11.89" height="1.28" style="fill:#c80000"/><rect x="79.11" y="47.72" width="11.89" height="1.28" style="fill:#c80000"/><rect x="79.11" y="51.36" width="11.89" height="1.28" style="fill:#c80000"/><rect x="79.11" y="55" width="11.89" height="1.28" style="fill:#c80000"/><rect x="79.11" y="58.64" width="11.89" height="1.28" style="fill:#c80000"/><rect x="79.11" y="62.28" width="11.89" height="1.28" style="fill:#c80000"/><rect x="79.11" y="65.92" width="11.89" height="1.28" style="fill:#c80000"/><rect x="79.11" y="69.56" width="11.89" height="1.28" style="fill:#c80000"/><rect x="58.74" y="34.8" width="5.39" height="3.17" style="fill:#c80000"/><rect x="58.74" y="40.44" width="5.39" height="1.28" style="fill:#c80000"/><rect x="58.74" y="44.08" width="5.39" height="1.28" style="fill:#c80000"/><rect x="58.74" y="47.72" width="5.39" height="1.28" style="fill:#c80000"/><rect x="58.74" y="51.36" width="5.39" height="1.28" style="fill:#c80000"/><rect x="58.74" y="55" width="5.39" height="1.28" style="fill:#c80000"/><rect x="58.74" y="58.64" width="5.39" height="1.28" style="fill:#c80000"/><rect x="58.74" y="62.28" width="5.39" height="1.28" style="fill:#c80000"/><rect x="58.74" y="65.92" width="5.39" height="1.28" style="fill:#c80000"/><rect x="58.74" y="69.56" width="5.39" height="1.28" style="fill:#c80000"/><rect x="65.49" y="34.8" width="5.39" height="3.17" style="fill:#c80000"/><rect x="65.49" y="40.44" width="5.39" height="1.28" style="fill:#c80000"/><rect x="65.49" y="44.08" width="5.39" height="1.28" style="fill:#c80000"/><rect x="65.49" y="47.72" width="5.39" height="1.28" style="fill:#c80000"/><rect x="65.49" y="51.36" width="5.39" height="1.28" style="fill:#c80000"/><rect x="65.49" y="55" width="5.39" height="1.28" style="fill:#c80000"/><rect x="65.49" y="58.64" width="5.39" height="1.28" style="fill:#c80000"/><rect x="65.49" y="62.28" width="5.39" height="1.28" style="fill:#c80000"/><rect x="65.49" y="65.92" width="5.39" height="1.28" style="fill:#c80000"/><rect x="65.49" y="69.56" width="5.39" height="1.28" style="fill:#c80000"/><rect x="72.24" y="34.8" width="5.39" height="3.17" style="fill:#c80000"/><rect x="72.24" y="40.44" width="5.39" height="1.28" style="fill:#c80000"/><rect x="72.24" y="44.08" width="5.39" height="1.28" style="fill:#c80000"/><rect x="72.24" y="47.72" width="5.39" height="1.28" style="fill:#c80000"/><rect x="72.24" y="51.36" width="5.39" height="1.28" style="fill:#c80000"/><rect x="72.24" y="55" width="5.39" height="1.28" style="fill:#c80000"/><rect x="72.24" y="58.64" width="5.39" height="1.28" style="fill:#c80000"/><rect x="72.24" y="62.28" width="5.39" height="1.28" style="fill:#c80000"/><rect x="72.24" y="65.92" width="5.39" height="1.28" style="fill:#c80000"/><rect x="72.24" y="69.56" width="5.39" height="1.28" style="fill:#c80000"/><circle cx="7.23" cy="25.98" r="1.22" style="fill:#c80000"/><circle cx="11.18" cy="25.98" r="1.22" style="fill:#c80000"/><circle cx="15.13" cy="25.98" r="1.22" style="fill:#c80000"/><path d="M19.54,36.66a9.42,9.42,0,0,0-1.78,13.76L25,44.36Z" style="fill:#c80000;opacity:0.2"/><path d="M17.76,50.42a9.44,9.44,0,0,0,11.35,2.41L25,44.36Z" style="fill:#c80000;opacity:0.5"/><path d="M34.79,44.31a9.93,9.93,0,0,0-15.67-8.1l5.74,8.1,4.35,8.93A10,10,0,0,0,34.79,44.31Z" style="fill:#c80000"/><rect x="9.12" y="68.11" width="4.61" height="3.13" style="fill:#c80000;opacity:0.2"/><rect x="15.13" y="65.89" width="4.61" height="5.35" style="fill:#c80000;opacity:0.5"/><rect x="21.13" y="64.04" width="4.61" height="7.21" style="fill:#c80000;opacity:0.5"/><rect x="27.13" y="59.3" width="4.61" height="11.94" style="fill:#c80000;opacity:0.5"/><rect x="33.14" y="55.64" width="4.61" height="15.6" style="fill:#c80000"/></svg>