<svg xmlns="http://www.w3.org/2000/svg" viewBox="0 0 100 100"><title>product-type_online</title><path d="M50,3.38V22.13c8,0,10.24,6.34,10,8.75-.17,1.94-.27,2.79-.36,3.74s.68,1.1.22,3.1c-.87,3.8-1.19,2.22-1.59,4.59-1,6-2.65,4.18-2.65,7.36,0,4.89-.45,3.6,6.8,6.25s9.08,4.36,9.29,5.61A39.18,39.18,0,0,1,72,66.05c-6.08,4.55-14,6.82-22,6.82V96.63A46.63,46.63,0,1,0,50,3.38Z" style="fill:#c80000;opacity:0.15"/><path d="M50,97.38A47.38,47.38,0,1,1,97.38,50,47.43,47.43,0,0,1,50,97.38ZM50,4.13A45.88,45.88,0,1,0,95.88,50,45.91,45.91,0,0,0,50,4.13Z" style="fill:#c80000"/><path d="M66,57,64.46,57c.12-2.3.18-4.64.18-7C64.64,25.13,57.93,4.13,50,4.13V2.63c9,0,16.14,20.8,16.14,47.37C66.14,52.34,66.08,54.71,66,57Z" style="fill:#c80000"/><path d="M50,97.38v-1.5c5.41,0,10.53-9.93,13-25.29l1.48.25C61.84,87.21,56.28,97.38,50,97.38Z" style="fill:#c80000"/><path d="M50,97.38v-1.5C66.55,95.88,80,75.3,80,50S66.55,4.13,50,4.13V2.63C67.38,2.63,81.52,23.88,81.52,50S67.38,97.38,50,97.38Z" style="fill:#c80000"/><rect x="49.25" y="72.87" width="1.5" height="23.75" style="fill:#c80000"/><rect x="49.25" y="3.38" width="1.5" height="18.76" style="fill:#c80000"/><rect x="55.66" y="49.25" width="40.96" height="1.5" style="fill:#c80000"/><rect x="60.04" y="29.13" width="32.21" height="1.5" style="fill:#c80000"/><rect x="64.42" y="69.37" width="27.83" height="1.5" style="fill:#c80000"/><path d="M50,73.6c-8.13,0-16.26-2.32-22.45-6.95l-.3-.23v-.37a36.94,36.94,0,0,1,.27-4.63c.23-1.44,1.57-3.18,9.78-6.19,1.38-.5,2.49-.87,3.37-1.16,2.95-1,2.95-1,2.93-3.58v-.81a2.41,2.41,0,0,0-.62-2c-.6-.75-1.42-1.78-2-5.28a2.87,2.87,0,0,0-.45-1.4,8.38,8.38,0,0,1-1.13-3.15,4.1,4.1,0,0,1,.09-2.64,1.14,1.14,0,0,0,.11-.55L39.51,34c-.07-.73-.16-1.58-.28-3a9,9,0,0,1,2.46-6.24A10.75,10.75,0,0,1,50,21.38a10.82,10.82,0,0,1,8.31,3.31,9,9,0,0,1,2.47,6.25c-.13,1.47-.21,2.32-.28,3.05l-.07.71a1.14,1.14,0,0,0,.11.55,4,4,0,0,1,.09,2.63,8.38,8.38,0,0,1-1.13,3.17,2.88,2.88,0,0,0-.45,1.39c-.6,3.5-1.42,4.53-2,5.28a2.41,2.41,0,0,0-.62,2v.8c0,2.61,0,2.61,2.93,3.59.88.29,2,.65,3.37,1.16,8.19,3,9.54,4.75,9.78,6.19a38.58,38.58,0,0,1,.26,4.64v.37l-.3.23C66.26,71.28,58.13,73.6,50,73.6ZM28.75,65.67c11.81,8.59,30.69,8.59,42.5,0a33.8,33.8,0,0,0-.24-4c-.14-.87-1.79-2.44-8.81-5-1.37-.5-2.46-.86-3.33-1.15-3.76-1.24-4-1.52-4-5v-.8a3.81,3.81,0,0,1,1-2.88c.52-.66,1.17-1.48,1.71-4.6a4.21,4.21,0,0,1,.67-1.95,7.26,7.26,0,0,0,.93-2.69,2.64,2.64,0,0,0,0-1.8,2.42,2.42,0,0,1-.19-1.2l.07-.71c.07-.73.15-1.57.28-3a7.49,7.49,0,0,0-2.09-5.1A9.45,9.45,0,0,0,50,22.88a9.43,9.43,0,0,0-7.21,2.84,7.5,7.5,0,0,0-2.07,5.1c.13,1.44.21,2.28.28,3l.08.73a2.59,2.59,0,0,1-.2,1.21,2.68,2.68,0,0,0,0,1.79,7.25,7.25,0,0,0,.93,2.68,4.26,4.26,0,0,1,.67,2c.54,3.12,1.19,3.94,1.72,4.6a3.86,3.86,0,0,1,.94,2.88v.8c0,3.5-.2,3.78-4,5-.87.28-2,.64-3.33,1.14-7,2.58-8.67,4.15-8.81,5A34.12,34.12,0,0,0,28.75,65.67Z" style="fill:#c80000"/></svg>