<svg xmlns="http://www.w3.org/2000/svg" viewBox="0 0 100 100"><title>product-type_tangible</title><polygon points="49.85 9.34 3.38 36.28 3.38 63.72 50.03 90.66 96.63 63.72 96.63 36.28 49.85 9.34" style="fill:#c80000;opacity:0.15"/><path d="M50,91.52,2.63,64.15V35.85L49.85,8.48,97.38,35.85v28.3ZM4.13,63.28,50,89.79,95.88,63.28V36.72l-46-26.51L4.13,36.72Z" style="fill:#c80000"/><polygon points="50.03 64.09 3 36.93 3.75 35.63 50.03 62.36 96.25 35.63 97 36.93 50.03 64.09" style="fill:#c80000"/><rect x="49.28" y="63.22" width="1.5" height="27.43" style="fill:#c80000"/><polygon points="67.56 19.95 21.2 46.89 21.2 61.47 30.23 66.62 30.23 52.04 76.66 25.1 67.56 19.95" style="fill:#c80000"/><polyline points="55.94 66.56 55.94 74.18 68.89 66.69 68.89 59.07" style="fill:#c80000"/></svg>