<svg xmlns="http://www.w3.org/2000/svg" viewBox="0 0 100 100"><title>product-type_digital</title><polygon points="26.65 43.31 3.38 56.69 3.38 83.43 26.65 96.87 50 83.43 50 56.69 26.65 43.31" style="fill:#c80000;opacity:0.15"/><path d="M26.65,97.73l-24-13.87V56.25l24-13.8,24.1,13.8V83.86ZM4.13,83,26.65,96l22.6-13V57.12L26.65,44.18,4.13,57.12Z" style="fill:#c80000"/><polygon points="26.65 70.92 3 57.34 3.75 56.04 26.65 69.19 49.63 56.03 50.37 57.34 26.65 70.92" style="fill:#c80000"/><rect x="25.9" y="70.06" width="1.5" height="26.81" style="fill:#c80000"/><polygon points="49.96 3.13 26.69 16.5 26.69 43.25 49.96 56.69 73.31 43.25 73.31 16.5 49.96 3.13" style="fill:#c80000;opacity:0.15"/><path d="M50,57.55l-24-13.87V16.07L50,2.27l24.1,13.8V43.68ZM27.44,42.82,50,55.82l22.6-13V16.94L50,4,27.44,16.94Z" style="fill:#c80000"/><polygon points="49.96 30.74 26.31 17.16 27.06 15.85 49.96 29.01 72.94 15.85 73.69 17.16 49.96 30.74" style="fill:#c80000"/><rect x="49.21" y="29.88" width="1.5" height="26.81" style="fill:#c80000"/><polygon points="73.28 43.31 50 56.69 50 83.43 73.28 96.87 96.63 83.43 96.63 56.69 73.28 43.31" style="fill:#c80000;opacity:0.15"/><path d="M73.27,97.73l-24-13.87V56.25l24-13.8,24.11,13.8V83.86ZM50.75,83,73.27,96,95.88,83V57.12L73.27,44.18,50.75,57.12Z" style="fill:#c80000"/><polygon points="73.27 70.92 49.63 57.34 50.37 56.04 73.28 69.19 96.25 56.03 97 57.34 73.27 70.92" style="fill:#c80000"/><rect x="72.52" y="70.06" width="1.5" height="26.81" style="fill:#c80000"/></svg>