<svg xmlns="http://www.w3.org/2000/svg" xmlns:xlink="http://www.w3.org/1999/xlink" viewBox="0 0 100 100"><defs><clipPath id="b"><path d="M59.5 14.48c-5.59-3.23-14.63-3.23-20.19 0-3.56 2.07-4.82 5-3.81 7.62a8.46 8.46 0 0 0 3.88 4.07C45 29.4 54 29.4 59.57 26.17a8.31 8.31 0 0 0 3.8-4c1.03-2.69-.26-5.61-3.87-7.69z" fill="none"/></clipPath><linearGradient id="a" x1="30.92" y1="25.65" x2="72" y2="25.65" gradientUnits="userSpaceOnUse"><stop offset="0" stop-color="#fff"/><stop offset="1" stop-color="#fff" stop-opacity="0"/></linearGradient><linearGradient id="c" x1="36.4" y1="23.42" x2="76.22" y2="23.42" xlink:href="#a"/><linearGradient id="d" x1="46.07" y1="20.33" x2="85.89" y2="20.33" xlink:href="#a"/></defs><path fill="#c80000" opacity=".15" d="M49.84 36.8L0 65.77l50.16 28.96L100 65.77 49.84 36.8z"/><path d="M69.08 65.77a7.35 7.35 0 0 0-1.61-4.4l-9.92-27.19-7.22 1-8-.8-9.76 26.85a7.33 7.33 0 0 0-1.65 4.54c0 2.83 1.89 5.65 5.63 7.81 7.48 4.32 19.56 4.32 27 0 3.72-2.16 5.57-5 5.55-7.81z" fill="#c80000" opacity=".15"/><path d="M63.45 58c-7.48-4.31-19.56-4.31-27 0s-7.39 11.32.09 15.63 19.56 4.32 27 0 7.38-11.36-.09-15.63M42.33 34.41L32.32 61.56m25.23-27.38l9.69 26.54" fill="none" stroke="#c80000" stroke-miterlimit="10" stroke-width="1.5"/><path d="M62.21 31.72a.94.94 0 0 1-.46-.92 3 3 0 0 1 1.38-2.39 1 1 0 0 1 .91-.13h.06l2 1.16a7.79 7.79 0 0 0 2.34-5.19v-4.02c-.06-2.8-1.94-5.59-5.63-7.72-7.48-4.31-19.56-4.31-27 0-3.71 2.16-5.56 5-5.54 7.82v3.83C30.37 27 32.25 29.82 36 32c7.42 4.28 19.38 4.31 26.82.08z" fill="#c80000" opacity=".15"/><path d="M62.89 12.51c-7.48-4.31-19.56-4.31-27 0s-7.37 11.32.11 15.63 19.56 4.32 27 0 7.39-11.31-.09-15.63" fill="#eee"/><path d="M39.15 18c5.65-3.24 14.85-3.24 20.51 0a8.56 8.56 0 0 1 3.93 4.14c1-2.72-.27-5.68-3.93-7.79-5.68-3.28-14.86-3.28-20.51 0-3.61 2.1-4.89 5-3.86 7.73A8.47 8.47 0 0 1 39.15 18z" fill="#c80000" opacity=".5"/><path d="M39.22 26.27c5.68 3.28 14.86 3.28 20.51 0a8.48 8.48 0 0 0 3.86-4.09A8.56 8.56 0 0 0 59.66 18C54 14.76 44.8 14.76 39.15 18a8.47 8.47 0 0 0-3.86 4.08 8.58 8.58 0 0 0 3.93 4.19z" fill="#c80000" opacity=".15"/><g clip-path="url(#b)" opacity=".5"><path fill="url(#a)" d="M30.92 17.72l33.17 17.43 7.91-.84-35.41-18.15"/><path fill="url(#c)" d="M36.4 14.8l35.57 18.08 4.25-.45-36.77-18.47"/><path fill="url(#d)" d="M46.07 11.71l35.57 18.08 4.25-.45-36.77-18.47"/></g><path d="M85 47.77a2.17 2.17 0 0 1-.95-2 6.87 6.87 0 0 1 3.12-5.41 2.73 2.73 0 0 1 1.43-.41l-14.4-8.36a.57.57 0 0 0-.13-.08l-.07-.05a2.32 2.32 0 0 0-2 .29 6.87 6.87 0 0 0-3.12 5.41 2.08 2.08 0 0 0 1 2.06l15.75 9.14a1.56 1.56 0 0 1-.63-.59z" fill="#c80000" opacity=".15"/><path d="M87.16 40.33A6.87 6.87 0 0 0 84 45.74c0 2 1.41 2.79 3.14 1.79a6.88 6.88 0 0 0 3.13-5.41c.03-1.99-1.37-2.79-3.11-1.79zM69 35.63a7.19 7.19 0 0 1 2.1-3.3l-7-4h-.06a1 1 0 0 0-.91.13 3 3 0 0 0-1.38 2.39.94.94 0 0 0 .46.92z" fill="#c80000" opacity=".5"/><path d="M59.66 14.39c-5.68-3.28-14.86-3.28-20.51 0-3.61 2.1-4.89 5-3.86 7.73a8.58 8.58 0 0 0 3.93 4.15c5.68 3.28 14.86 3.28 20.51 0a8.48 8.48 0 0 0 3.86-4.09c1.04-2.72-.27-5.68-3.93-7.79z" fill="none" stroke="#c80000" stroke-miterlimit="10" stroke-width="1.5"/><path d="M89.25 40h-.13L75 31.79c-.09-.06-.61-.37-.71-.41l-.91-.54.2.12a2.56 2.56 0 0 0-2.18.24 5.29 5.29 0 0 0-1 .72l-4.22-2.42a7.78 7.78 0 0 0 2.34-5.2v-4.07a6.87 6.87 0 0 0-.59-2.6l-.24-.5q-.12-.24-.27-.48-.14-.22-.3-.45v-.06c-.1-.15-.21-.29-.32-.43l-.08-.09-.34-.39-.1-.11-.35-.36-.16-.14-.34-.32-.21-.17-.34-.28c-.08-.07-.18-.13-.27-.2l-.31-.24-.37-.24-.27-.18c-.21-.14-.44-.27-.67-.41-7.48-4.31-19.56-4.31-27 0-.23.14-.46.27-.67.41a14 14 0 0 0-1.76 1.33c-.18.15-.34.3-.5.46a7.86 7.86 0 0 0-2.61 5.62v3.83C30.37 27 32.25 29.82 36 32c7.42 4.28 19.38 4.31 26.82.08l5.61 3.23a5.11 5.11 0 0 0-.18 1.32 2.11 2.11 0 0 0 1 2.07l15.64 9.08h.12a2.22 2.22 0 0 0 2.15-.26 6.88 6.88 0 0 0 3.13-5.41A2.27 2.27 0 0 0 89.25 40z" fill="none" stroke="#c80000" stroke-miterlimit="10" stroke-width="1.5"/></svg>