<svg xmlns="http://www.w3.org/2000/svg" xmlns:xlink="http://www.w3.org/1999/xlink" viewBox="0 0 100 100"><defs><linearGradient id="a" x1="82.91" y1="70.85" x2="82.91" y2="35" gradientUnits="userSpaceOnUse"><stop offset="0" stop-color="#c80000" stop-opacity="0"/><stop offset="1" stop-color="#c80000" stop-opacity=".2"/></linearGradient><linearGradient id="b" x1="18.58" y1="88.38" x2="18.58" y2="52.54" xlink:href="#a"/></defs><path fill="url(#a)" d="M92.97 46.63L82.91 35 72.85 46.63h5.16v24.22h9.8V46.63h5.16z"/><path fill="url(#b)" d="M28.64 64.17L18.59 52.54 8.53 64.17h5.15v24.21h9.81V64.17h5.15z"/><circle cx="12.28" cy="12.86" r="3.55" fill="#c80000" opacity=".15"/><circle cx="69.3" cy="91.18" r="3.55" fill="#c80000" opacity=".15"/><circle cx="91.25" cy="81.77" r="1.78" fill="#c80000" opacity=".15"/><circle cx="32.19" cy="46.09" r="1.78" fill="#c80000" opacity=".15"/><circle cx="89.48" cy="15.82" r="1.78" fill="#c80000" opacity=".15"/><circle cx="40.88" cy="4.92" r="1.78" fill="#c80000" opacity=".15"/><circle cx="50" cy="50" r="46.62" fill="none" stroke="#c80000" stroke-miterlimit="10" stroke-width="1.5"/><circle cx="50" cy="50" r="46.62" fill="#c80000" opacity=".15"/><path fill="#fff" d="M71.87 42.01L50 16.72 28.13 42.01h11.21v41.27h21.32V42.01h11.21z"/><path fill="none" stroke="#c80000" stroke-miterlimit="10" stroke-width="1.5" d="M71.87 42.01L50 16.72 28.13 42.01h11.21v41.27h21.32V42.01h11.21z"/></svg>