<svg xmlns="http://www.w3.org/2000/svg" xmlns:xlink="http://www.w3.org/1999/xlink" viewBox="0 0 100 100"><defs><clipPath id="a"><path d="M59.5,14.48c-5.59-3.23-14.63-3.23-20.19,0-3.56,2.07-4.82,5-3.81,7.62a8.46,8.46,0,0,0,3.88,4.07C45,29.4,54,29.4,59.57,26.17a8.31,8.31,0,0,0,3.8-4C64.4,19.48,63.11,16.56,59.5,14.48Z" style="fill:none"/></clipPath><linearGradient id="b" x1="30.92" y1="25.65" x2="72" y2="25.65" gradientUnits="userSpaceOnUse"><stop offset="0" stop-color="#fff"/><stop offset="1" stop-color="#fff" stop-opacity="0"/></linearGradient><linearGradient id="c" x1="36.4" y1="23.42" x2="76.22" y2="23.42" xlink:href="#b"/><linearGradient id="d" x1="46.07" y1="20.33" x2="85.89" y2="20.33" xlink:href="#b"/></defs><title>empty-state</title><polygon points="49.84 36.8 0 65.77 50.16 94.73 100 65.77 49.84 36.8" style="fill:#c80000;opacity:0.15"/><path d="M69.08,65.77h0a7.35,7.35,0,0,0-1.61-4.4L57.55,34.18l-7.22,1-8-.8L32.57,61.23a7.33,7.33,0,0,0-1.65,4.54h0c0,2.83,1.89,5.65,5.63,7.81,7.48,4.32,19.56,4.32,27,0,3.72-2.16,5.57-5,5.55-7.81Z" style="fill:#c80000;opacity:0.15"/><path d="M63.45,58c-7.48-4.31-19.56-4.31-27,0s-7.39,11.32.09,15.63,19.56,4.32,27,0S70.92,62.27,63.45,58" style="fill:none;stroke:#c80000;stroke-miterlimit:10;stroke-width:1.5px"/><line x1="42.33" y1="34.41" x2="32.32" y2="61.56" style="fill:none;stroke:#c80000;stroke-miterlimit:10;stroke-width:1.5px"/><line x1="57.55" y1="34.18" x2="67.24" y2="60.72" style="fill:none;stroke:#c80000;stroke-miterlimit:10;stroke-width:1.5px"/><path d="M62.21,31.72h0a.94.94,0,0,1-.46-.92,3,3,0,0,1,1.38-2.39,1,1,0,0,1,.91-.13h0l0,0,.06,0,2,1.16a7.79,7.79,0,0,0,2.34-5.19h0V20.23h0c-.06-2.8-1.94-5.59-5.63-7.72-7.48-4.31-19.56-4.31-27,0-3.71,2.16-5.56,5-5.54,7.82h0v3.83h0C30.37,27,32.25,29.82,36,32c7.42,4.28,19.38,4.31,26.82.08Z" style="fill:#c80000;opacity:0.15"/><path d="M62.89,12.51c-7.48-4.31-19.56-4.31-27,0S28.52,23.83,36,28.14s19.56,4.32,27,0,7.39-11.31-.09-15.63" style="fill:#eee"/><path d="M39.15,18C44.8,14.76,54,14.76,59.66,18a8.56,8.56,0,0,1,3.93,4.14c1-2.72-.27-5.68-3.93-7.79-5.68-3.28-14.86-3.28-20.51,0-3.61,2.1-4.89,5-3.86,7.73A8.47,8.47,0,0,1,39.15,18Z" style="fill:#c80000;opacity:0.5"/><path d="M39.22,26.27c5.68,3.28,14.86,3.28,20.51,0a8.48,8.48,0,0,0,3.86-4.09A8.56,8.56,0,0,0,59.66,18C54,14.76,44.8,14.76,39.15,18a8.47,8.47,0,0,0-3.86,4.08A8.58,8.58,0,0,0,39.22,26.27Z" style="fill:#c80000;opacity:0.15"/><g style="opacity:0.5"><g style="clip-path:url(#a)"><polyline points="30.92 17.72 64.09 35.15 72 34.31 36.59 16.16" style="fill:url(#b)"/><polyline points="36.4 14.8 71.97 32.88 76.22 32.43 39.45 13.96" style="fill:url(#c)"/><polyline points="46.07 11.71 81.64 29.79 85.89 29.34 49.12 10.87" style="fill:url(#d)"/></g></g><path d="M85,47.77a2.17,2.17,0,0,1-.95-2,6.87,6.87,0,0,1,3.12-5.41,2.73,2.73,0,0,1,1.43-.41L74.2,31.59a.57.57,0,0,0-.13-.08L74,31.46h0a2.32,2.32,0,0,0-2,.29,6.87,6.87,0,0,0-3.12,5.41,2.08,2.08,0,0,0,1,2.06h0l15.75,9.14v0A1.56,1.56,0,0,1,85,47.77Z" style="fill:#c80000;opacity:0.15"/><path d="M87.16,40.33A6.87,6.87,0,0,0,84,45.74c0,2,1.41,2.79,3.14,1.79a6.88,6.88,0,0,0,3.13-5.41C90.3,40.13,88.9,39.33,87.16,40.33Z" style="fill:#c80000;opacity:0.5"/><path d="M69,35.63a7.19,7.19,0,0,1,2.1-3.3l-7-4-.06,0,0,0h0a1,1,0,0,0-.91.13,3,3,0,0,0-1.38,2.39.94.94,0,0,0,.46.92h0Z" style="fill:#c80000;opacity:0.5"/><path d="M59.66,14.39c-5.68-3.28-14.86-3.28-20.51,0-3.61,2.1-4.89,5-3.86,7.73a8.58,8.58,0,0,0,3.93,4.15c5.68,3.28,14.86,3.28,20.51,0a8.48,8.48,0,0,0,3.86-4.09C64.63,19.46,63.32,16.5,59.66,14.39Z" style="fill:none;stroke:#c80000;stroke-miterlimit:10;stroke-width:1.5px"/><path d="M89.25,40l-.13,0L75,31.79c-.09-.06-.61-.37-.71-.41l-.91-.54.2.12a2.56,2.56,0,0,0-2.18.24,5.29,5.29,0,0,0-1,.72L66.18,29.5a7.78,7.78,0,0,0,2.34-5.2V20.23h0a6.87,6.87,0,0,0-.59-2.6h0l-.24-.5,0,0q-.12-.24-.27-.48l0,0q-.14-.22-.3-.45l0-.06c-.1-.15-.21-.29-.32-.43l-.08-.09-.34-.39-.1-.11-.35-.36-.16-.14-.34-.32-.21-.17-.34-.28c-.08-.07-.18-.13-.27-.2l-.31-.24-.37-.24-.27-.18c-.21-.14-.44-.27-.67-.41-7.48-4.31-19.56-4.31-27,0-.23.14-.46.27-.67.41a14,14,0,0,0-1.76,1.33c-.18.15-.34.3-.5.46a7.86,7.86,0,0,0-2.61,5.62h0v3.83h0C30.37,27,32.25,29.82,36,32c7.42,4.28,19.38,4.31,26.82.08l5.61,3.23a5.11,5.11,0,0,0-.18,1.32,2.11,2.11,0,0,0,1,2.07h0l15.64,9.08.12,0a2.22,2.22,0,0,0,2.15-.26,6.88,6.88,0,0,0,3.13-5.41A2.27,2.27,0,0,0,89.25,40Z" style="fill:none;stroke:#c80000;stroke-miterlimit:10;stroke-width:1.5px"/></svg>