<svg xmlns="http://www.w3.org/2000/svg" xmlns:xlink="http://www.w3.org/1999/xlink" viewBox="0 0 100 100"><defs><linearGradient id="a" x1="82.91" y1="70.85" x2="82.91" y2="35" gradientUnits="userSpaceOnUse"><stop offset="0" stop-color="#c80000" stop-opacity="0"/><stop offset="1" stop-color="#c80000" stop-opacity="0.2"/></linearGradient><linearGradient id="b" x1="18.58" y1="88.38" x2="18.58" y2="52.54" xlink:href="#a"/></defs><title>uggrade</title><polygon points="92.97 46.63 82.91 35 72.85 46.63 78.01 46.63 78.01 70.85 87.81 70.85 87.81 46.63 92.97 46.63" style="fill:url(#a)"/><polygon points="28.64 64.17 18.59 52.54 8.53 64.17 13.68 64.17 13.68 88.38 23.49 88.38 23.49 64.17 28.64 64.17" style="fill:url(#b)"/><circle cx="12.28" cy="12.86" r="3.55" style="fill:#c80000;opacity:0.15"/><circle cx="69.3" cy="91.18" r="3.55" style="fill:#c80000;opacity:0.15"/><circle cx="91.25" cy="81.77" r="1.78" style="fill:#c80000;opacity:0.15"/><circle cx="32.19" cy="46.09" r="1.78" style="fill:#c80000;opacity:0.15"/><circle cx="89.48" cy="15.82" r="1.78" style="fill:#c80000;opacity:0.15"/><circle cx="40.88" cy="4.92" r="1.78" style="fill:#c80000;opacity:0.15"/><circle cx="50" cy="50" r="46.62" style="fill:none;stroke:#c80000;stroke-miterlimit:10;stroke-width:1.5px"/><circle cx="50" cy="50" r="46.62" style="fill:#c80000;opacity:0.15"/><polygon points="71.87 42.01 50 16.72 28.13 42.01 39.34 42.01 39.34 83.28 60.66 83.28 60.66 42.01 71.87 42.01" style="fill:#fff"/><polygon points="71.87 42.01 50 16.72 28.13 42.01 39.34 42.01 39.34 83.28 60.66 83.28 60.66 42.01 71.87 42.01" style="fill:none;stroke:#c80000;stroke-miterlimit:10;stroke-width:1.5px"/></svg>