<svg xmlns="http://www.w3.org/2000/svg" xmlns:xlink="http://www.w3.org/1999/xlink" viewBox="0 0 75 75"><defs><linearGradient id="a" x1="29.92" y1="14" x2="29.92" y2="77.03" gradientTransform="matrix(1 0 0 -1 -.78 78.05)" gradientUnits="userSpaceOnUse"><stop offset="0" stop-color="#e0e0e0"/><stop offset="1" stop-color="#eee"/></linearGradient><linearGradient id="b" x1="37.57" y1="-5.77" x2="37.57" y2="57.26" gradientTransform="matrix(0 1 1 0 13.54 .46)" xlink:href="#a"/></defs><rect x="5.29" y="1.02" width="47.68" height="63.03" rx=".56" ry=".56" transform="rotate(-2.03 29.068 32.415)" fill="url(#a)"/><path d="M8.129 13.334l21.972-.878.032.8-21.972.878zm22.84-.789l9.674-.343.028.8-9.674.342zm10.571-.375l7.216-.255.028.8-7.215.255zM8.16 16.08l21.957-.777.028.799-21.956.778zm22.905-.81l9.674-.343.029.8-9.674.342zm10.562-.374l7.216-.256.028.8-7.216.255zm-33.36 3.899l21.956-.778.028.8-21.956.778zm22.894-.81l9.674-.343.029.8-9.674.342zm10.582-.375l7.215-.256.029.8-7.216.256zm-33.39 3.91l21.956-.778.029.8-21.956.778zm23.019-.94l9.68-.388.032.8-9.68.387zm10.458-.255l7.215-.256.028.8-7.215.256zM8.563 24.209l21.972-.88.032.8-21.972.879zm22.811-.795l9.673-.343.029.8-9.674.342zm10.541-.374l7.216-.255.028.8-7.215.255zM8.546 26.96l21.956-.778.028.8-21.956.778zm23.043-.948l9.68-.388.032.8-9.68.388zm10.433-.247l7.215-.256.029.8-7.216.256zM8.78 29.645l21.973-.878.032.8-21.973.878zm22.766-.781l9.674-.343.029.8-9.674.343zm10.728-.549l7.22-.289.032.8-7.22.289zM8.748 32.4l21.957-.779.028.8-21.956.778zm22.905-.821l9.674-.343.028.8-9.674.342zm10.73-.549l7.22-.288.032.8-7.22.289zM8.835 35.115l21.956-.778.028.8-21.956.778zm23.08-.935l9.68-.387.032.8-9.68.387zm10.577-.423l7.22-.289.032.8-7.22.29zM8.93 37.83l21.957-.778.028.8-21.956.777zm22.915-.812l9.674-.343.029.8-9.674.343zm10.745-.544l7.22-.29.033.8-7.22.29zM9.037 40.545l21.956-.779.028.8-21.956.778zm22.895-.801l9.674-.343.028.8-9.674.342zM42.71 39.2l7.22-.29.032.8-7.22.29zM9.123 43.27l21.956-.779.029.8-21.956.778zm23.119-.932l9.68-.387.032.8-9.68.387zm10.576-.422l7.22-.29.032.8-7.22.29zM9.23 45.994l21.956-.778.028.8-21.956.778zm22.904-.811l9.674-.343.028.8-9.673.342zm10.562-.373l7.215-.257.029.8-7.216.256zm-33.38 3.9l21.956-.779.028.8-21.956.778zm23.144-.93l9.68-.386.031.8-9.68.387zm10.332-.256l7.216-.256.028.8-7.215.256zm-33.38 3.9l21.956-.778.028.8-21.956.778zm22.915-.801L42 50.28l.028.8-9.674.342zm10.551-.373l7.216-.256.028.799-7.215.256z" opacity=".5" fill="#9e9e9e"/><path fill="#9e9e9e" d="M37.755 53.538l12.722-.451.089 2.508-12.722.451z"/><rect x="5.29" y="1.02" width="47.68" height="63.03" rx=".56" ry=".56" transform="rotate(-2.03 29.068 32.415)" style="isolation:isolate" opacity=".15"/><rect x="7.77" y="14.18" width="63.03" height="47.68" rx=".56" ry=".56" transform="rotate(-73.91 39.282 38.025)" fill="url(#b)"/><path d="M24.932 14.076l.224-.768 21.091 6.151-.224.768zm22.092 6.297l.222-.769 9.3 2.683-.221.769zM57.183 23.3l.222-.768 6.937 2-.221.77zM24.25 16.632l.22-.769 21.11 6.09-.221.768zm22.014 6.342l.222-.769 9.3 2.683-.221.769zm10.156 2.943l.222-.769 6.937 2.001-.222.769zm-32.934-6.668l.222-.77 21.109 6.09-.222.768zm22.024 6.354l.222-.768 9.301 2.682-.222.769zm10.157 2.917l.222-.768 6.937 2-.222.77zm-32.931-6.668l.222-.768 21.109 6.089-.222.768zm22.024 6.352l.223-.768 9.3 2.682-.221.77zm10.16 2.944l.221-.77 6.937 2.002-.221.769zm-32.85-6.605l.224-.768 21.09 6.151-.223.768zm21.927 6.29l.222-.768 9.3 2.683-.221.768zm10.16 2.918l.221-.768 6.938 2-.222.77zm-32.935-6.668l.222-.769 21.11 6.09-.222.768zm22.025 6.352l.222-.769 9.3 2.683-.22.768zm10.16 2.93l.221-.768 6.937 2-.221.77zm-32.935-6.668l.222-.769 21.11 6.089-.222.769zm22.012 6.357l.221-.769 9.301 2.683-.221.769zm10.156 2.927l.222-.769 6.937 2.001-.221.77zm-32.934-6.658l.222-.769 21.11 6.089-.222.769zm22.028 6.352l.222-.769 9.3 2.683-.221.769zm10.294 3.079l.224-.768 6.931 2.021-.224.768zM18.969 34.94l.221-.769 21.11 6.09-.222.768zm22.011 6.351l.223-.768 9.3 2.682-.221.77zm10.16 2.921l.222-.769 6.937 2.001-.222.769zm-32.934-6.669l.221-.768 21.11 6.089-.222.768zm22.024 6.355l.222-.769 9.3 2.683-.22.769zm10.147 2.927l.222-.768 6.937 2-.222.77zM17.455 40.16l.222-.768 21.11 6.088-.222.77zm22.025 6.352l.222-.769 9.3 2.683-.221.769zm10.16 2.931l.221-.77 6.937 2.002-.221.769zm-32.934-6.682l.221-.768 21.11 6.089-.222.768zm22.011 6.365l.222-.769 9.3 2.683-.22.768zm10.159 2.93l.222-.769 6.937 2.001-.221.77zM15.955 45.39l.221-.768 21.11 6.09-.222.768zm22.012 6.352l.222-.768 9.3 2.683-.221.768zm10.159 2.918l.222-.769 6.937 2.001-.221.77zm-32.934-6.668l.222-.769 21.11 6.089-.222.769zm22.09 6.541l.224-.768 9.293 2.71-.224.768zm10.078 2.753l.222-.769 6.937 2.001-.221.77zm-32.919-6.665l.222-.768 21.11 6.089-.222.768zm22.013 6.349l.222-.769 9.3 2.683-.221.769zm10.169 2.933l.221-.768 6.938 2-.222.77z" opacity=".5" fill="#9e9e9e"/><path fill="#9e9e9e" d="M40.243 63.083l.696-2.412 12.23 3.528-.695 2.412z"/></svg>