<svg xmlns="http://www.w3.org/2000/svg" viewBox="0 0 100 100"><defs><linearGradient id="a" x1="2.9" x2="96.3" y1="50" y2="50" gradientUnits="userSpaceOnUse"><stop offset="0" stop-color="#eee" stop-opacity=".2"/><stop offset="1" stop-color="#bdbdbd" stop-opacity=".2"/></linearGradient><linearGradient id="b" x1="15.8" x2="85.7" y1="84.9" y2="15.1" gradientUnits="userSpaceOnUse"><stop offset="0" stop-color="#fff" stop-opacity="0"/><stop offset="1" stop-color="#fff" stop-opacity=".4"/></linearGradient></defs><g style="isolation:isolate"><ellipse cx="49.6" cy="50" fill="url(#a)" rx="46.7" ry="47.1"/><path fill="#bdbdbd" d="M49.6 100C22.3 100 0 77.6 0 50S22.3 0 49.6 0s49.6 22.4 49.6 50-22.2 50-49.6 50zm0-94.1A44.1 44.1 0 1 0 93.4 50 44 44 0 0 0 49.6 5.9z"/><ellipse cx="50.8" cy="50" fill="url(#b)" rx="49.2" ry="49.6"/><path fill="#bdbdbd" d="M75.5 72.6a44.6 44.6 0 0 0-.3-5.3c-.3-1.5-2.3-3.4-11-6.5s-8-1.6-8-7.2c0-3.6 2-1.5 3.2-8.5.4-2.7.8-.9 1.8-5.3.6-2.2-.3-2.4-.2-3.5l.4-4.3c.2-2.8-2.4-10-11.8-10s-12 7.2-11.8 10l.5 4.3c0 1.1-.8 1.3-.3 3.6 1 4.3 1.4 2.5 1.9 5.3C41 52 43 50 43 53.6c0 5.7.5 4.2-8 7.2s-10.7 5-11 6.5a44.4 44.4 0 0 0-.2 5.3h51.6z"/></g></svg>