<svg xmlns="http://www.w3.org/2000/svg" xmlns:xlink="http://www.w3.org/1999/xlink" viewBox="0 0 510 258.5"><defs><linearGradient id="a" x1="760.16" y1="-181.92" x2="785.83" y2="-207.59" gradientTransform="translate(-469.67 366.77)" gradientUnits="userSpaceOnUse"><stop offset="0" stop-color="#c80000" stop-opacity=".3"/><stop offset="1" stop-color="#c80000" stop-opacity=".2"/></linearGradient><linearGradient id="b" x1="606.55" y1="-183.4" x2="659.36" y2="-236.21" gradientTransform="translate(-386.62 253.01)" xlink:href="#a"/><linearGradient id="c" x1="308.62" y1="98.44" x2="427.97" y2="98.44" gradientTransform="translate(-112.44 12.66)" gradientUnits="userSpaceOnUse"><stop offset="0" stop-color="#e0e0e0"/><stop offset="1" stop-color="#eee"/></linearGradient><linearGradient id="d" x1="-99.09" y1="75.63" x2="-42.26" y2="18.8" gradientTransform="translate(172.84 31.02)" xlink:href="#a"/><linearGradient id="e" x1="264.43" y1="135.56" x2="297.37" y2="102.62" gradientTransform="translate(-156.54 96.59)" xlink:href="#a"/><linearGradient id="f" x1="524.29" y1="18.35" x2="549.36" y2="-6.72" gradientTransform="translate(-132.6 211.61)" xlink:href="#a"/><linearGradient id="g" x1="697.61" y1="-333.57" x2="740.07" y2="-376.03" gradientTransform="translate(-303.98 399.89)" xlink:href="#a"/></defs><path transform="rotate(60 303.333 172.008)" stroke="#c80000" stroke-miterlimit="10" stroke-width="2" fill="url(#a)" d="M290.49 159.18h25.67v25.67h-25.67z"/><path transform="rotate(60 246.338 43.21)" stroke="#c80000" stroke-miterlimit="10" stroke-width="2" fill="url(#b)" d="M219.93 16.81h52.81v52.81h-52.81z"/><path transform="rotate(12.66 255.835 111.058)" stroke="#ccc" stroke-miterlimit="10" stroke-width=".5" fill="url(#c)" d="M196.18 33.25h119.35v155.69H196.18z"/><path fill="#9e9e9e" opacity=".5" d="M222.115 34.029l31.086 6.983-7.349 32.714-31.085-6.982zm35.893 8.073l60.708 13.636-.94 4.186-60.708-13.637zm-2.348 10.47l60.708 13.636-.94 4.186-60.707-13.636zm-2.357 10.468l42.608 9.57-.94 4.187-42.608-9.571zm-41.069 14.984l31.086 6.983-7.349 32.714-31.085-6.982zm35.894 8.063l60.707 13.636-.94 4.186-60.708-13.637zm-2.348 10.47l60.707 13.637-.94 4.185-60.707-13.636zm-2.358 10.478l42.608 9.571-.94 4.186-42.608-9.571zM203.11 123.21l94.66 21.26-8 35.52-94.65-21.26 8-35.52m-.75-1.2l-8.42 37.48 96.6 21.7 8.45-37.48L202.36 122z"/><path d="M250.47 146.6a2.87 2.87 0 0 0-2.31-3.67 4.87 4.87 0 0 0-3.95 1l-1.21-1.68a7.21 7.21 0 0 1 5.88-1.37c3.13.7 4.76 3.07 4.08 6.1-.92 4.06-6.27 4.58-6.73 9l-2.26-.5c.46-4.94 5.76-5.61 6.5-8.88zm-8.13 13.33a1.89 1.89 0 1 1 1.41 2.34 1.89 1.89 0 0 1-1.41-2.34z" fill="#c80000"/><ellipse cx="249.04" cy="244.41" rx="69.1" ry="6.95" opacity=".1"/><path transform="rotate(-18.69 102.184 78.23)" stroke="#c80000" stroke-miterlimit="10" stroke-width="2" fill="url(#d)" d="M73.76 49.82h56.83v56.83H73.76z"/><path transform="rotate(24.23 124.371 215.7)" stroke="#c80000" stroke-miterlimit="10" stroke-width="2" fill="url(#e)" d="M107.89 199.21h32.95v32.95h-32.95z"/><path transform="rotate(24.23 404.252 217.44)" stroke="#c80000" stroke-miterlimit="10" stroke-width="2" fill="url(#f)" d="M391.69 204.88h25.08v25.08h-25.08z"/><path transform="rotate(60 414.852 45.084)" stroke="#c80000" stroke-miterlimit="10" stroke-width="2" fill="url(#g)" d="M393.63 23.86h42.46v42.46h-42.46z"/><path d="M120.12 113.91c15 11.52 40.68 24.15 52 26.81m-21.49 10.88l21.54-10.88-8.38-20.97m-11.3 92.52c10.82-5.77 25.15-17.62 29.76-23.63" fill="none" stroke="#bdbdbd" stroke-miterlimit="10" stroke-width="4"/><path fill="none" stroke="#bdbdbd" stroke-miterlimit="10" stroke-width="4" d="M182.94 204.29l-.69-15.65-14.64-.65m216.16 14.18c-16-4.16-38.52-15.17-46.46-21.6"/><path fill="none" stroke="#bdbdbd" stroke-miterlimit="10" stroke-width="4" d="M341.34 201.3l-4.03-20.73 18.99-5.46m34-117.8c-14.21 15.86-40.12 35.17-52.18 40.46"/><path fill="none" stroke="#bdbdbd" stroke-miterlimit="10" stroke-width="4" d="M364.25 105.4l-26.13-7.63 4.96-24.97"/></svg>