<svg xmlns="http://www.w3.org/2000/svg" viewBox="0 0 100 100"><defs><clipPath id="a"><path fill="none" d="M11.72 21.83v23.36l1.23 2.95 26.7 16.62 4.24 1.12L50 61.53l4.73 3.86 3.65.19 32.09-20.05.31-1.67-2.5-2.91V12.87l-76.56.49"/></clipPath></defs><path fill="#c80000" d="M92.58 91.25H7.42V44.31l3.83-3 .93 1.18-3.26 2.55v44.71h82.16V45.04l-3.26-2.55.93-1.18 3.83 3v46.94z"/><path fill="#c80000" d="M91.4 91.12L50 62.44 8.6 91.12l-.86-1.24L50 60.62l42.26 29.26-.86 1.24z"/><path fill="#c80000" d="M7.776 45.318l.793-1.274 34.857 21.68-.792 1.274zm48.812 20.415l34.847-21.699.793 1.274L57.38 67.006z"/><path fill="#c80000" d="M89.03 46.88h-1.5V10.25H12.47v36.63h-1.5V8.75h78.06v38.13z"/><path fill="#c80000" d="M16.89 14.94h9.46v9.46h-9.46z"/><g opacity=".15" fill="#c80000" clip-path="url(#a)"><path d="M30.49 14.94h52.62v4.73H30.49zm0 9.49h52.62v4.73H30.49zm-13.6 9.49h66.22v4.73H16.89zm0 9.49h66.22v4.73H16.89zm0 9.5h66.22v4.73H16.89zm0 9.49h66.22v4.73H16.89zm0 9.49h66.22v4.73H16.89z"/></g><path fill="#c80000" opacity=".15" d="M91.83 90.5H8.17V44.68l3.55-2.78v4.98l31.31 19.48L50 61.53l6.97 4.83 31.31-19.48V41.9l3.55 2.78V90.5z"/></svg>