<svg xmlns="http://www.w3.org/2000/svg" viewBox="0 0 100 100"><path d="M69.54 75.25h-.52a49.68 49.68 0 0 1-21.56-7.67 49 49 0 0 1-15-15 49.77 49.77 0 0 1-7.66-21.64 5.67 5.67 0 0 1 5.2-6.17h7.88a5.69 5.69 0 0 1 5.66 4.87 30.83 30.83 0 0 0 1.68 6.76 5.66 5.66 0 0 1-1.28 6l-2.71 2.72a38.64 38.64 0 0 0 13.69 13.7l2.71-2.72a5.71 5.71 0 0 1 6-1.28 30.66 30.66 0 0 0 6.74 1.68 5.66 5.66 0 0 1 4.88 5.74v7.37a5.68 5.68 0 0 1-5.64 5.69zm-31.65-49h-7.8a4.17 4.17 0 0 0-3.77 4.52 48.11 48.11 0 0 0 7.43 21A47.37 47.37 0 0 0 48.27 66.3a48.09 48.09 0 0 0 20.9 7.43h.38a4.17 4.17 0 0 0 4.15-4.18v-7.4a4.16 4.16 0 0 0-3.58-4.23 32.53 32.53 0 0 1-7.07-1.76 4.16 4.16 0 0 0-4.4.93l-3.52 3.53-.5-.29a40 40 0 0 1-15-15l-.29-.5 3.53-3.52a4.16 4.16 0 0 0 .93-4.4 32.53 32.53 0 0 1-1.8-7.08 4.17 4.17 0 0 0-4.11-3.58z" fill="#c80000"/><path d="M3.38 3.38v93.25h93.25V3.38zm71.07 66.18a4.92 4.92 0 0 1-4.9 4.94h-.46a48.65 48.65 0 0 1-21.22-7.55 47.84 47.84 0 0 1-14.75-14.77 48.67 48.67 0 0 1-7.55-21.32A4.91 4.91 0 0 1 30 25.52h7.82a4.93 4.93 0 0 1 4.92 4.23 31.08 31.08 0 0 0 1.72 6.91 4.93 4.93 0 0 1-1.11 5.19L40.25 45A39.33 39.33 0 0 0 55 59.7l3.12-3.12a4.93 4.93 0 0 1 5.19-1.11 31.08 31.08 0 0 0 6.91 1.72 4.93 4.93 0 0 1 4.23 5z" fill="#c80000" opacity=".15"/><path d="M97.38 97.38H2.63V2.63h94.75zm-93.25-1.5h91.75V4.13H4.13z" fill="#c80000"/></svg>