<svg xmlns="http://www.w3.org/2000/svg" viewBox="0 0 100 100"><defs><linearGradient id="a" x1="50" y1="79.58" x2="50" y2="60.38" gradientUnits="userSpaceOnUse"><stop offset="0" stop-color="#c80000" stop-opacity=".3"/><stop offset=".38" stop-color="#c80000" stop-opacity=".15"/><stop offset=".76" stop-color="#c80000" stop-opacity=".04"/><stop offset="1" stop-color="#c80000" stop-opacity="0"/></linearGradient></defs><path d="M21.08 17.92v39.69h57.84V17.92zM57.4 40.66a2 2 0 0 1-2 1.61h-9.72a2 2 0 0 1-2-1.61L42 32.27h17z" fill="#c80000" opacity=".15"/><path d="M97.38 85.59H2.63v-6.08l14.78-19.38V14.41h65.18v45.72l14.79 19.38zm-93.25-1.5h91.75V80L81.09 60.64V15.91H18.91v44.73L4.13 80z" fill="#c80000"/><path d="M77.42 19.42v36.7H22.58v-36.7h54.84m1.5-1.5H21.08v39.7h57.84v-39.7z" fill="#c80000"/><path fill="#c80000" opacity=".15" d="M3.38 79.77h93.25v5.08H3.38z"/><path fill="url(#a)" d="M96.63 79.58H3.38l14.78-19.2h63.68l14.79 19.2z"/><path fill="#c80000" d="M18.16 59.63h63.69v1.5H18.16zM3.38 79.02h93.25v1.5H3.38z"/><circle cx="45" cy="47.27" r="1" fill="#c80000" stroke="#c80000" stroke-miterlimit="10" stroke-width="1.5"/><circle cx="56" cy="47.27" r="1" fill="#c80000" stroke="#c80000" stroke-miterlimit="10" stroke-width="1.5"/><path d="M45.63 43a2.75 2.75 0 0 1-2.69-2.21L40.39 28H37v-1.5h4.61l1 5h17.3l-1.77 9.3a2.77 2.77 0 0 1-2.75 2.2h-9.76zm-2.71-10l1.5 7.49a1.23 1.23 0 0 0 1.25 1h9.73a1.25 1.25 0 0 0 1.26-1L58.09 33z" fill="#c80000"/></svg>