<svg xmlns="http://www.w3.org/2000/svg" xmlns:xlink="http://www.w3.org/1999/xlink" viewBox="0 0 75 75"><defs><linearGradient id="a" x1="29.92" y1="14" x2="29.92" y2="77.03" gradientTransform="matrix(1, 0, 0, -1, -0.78, 78.05)" gradientUnits="userSpaceOnUse"><stop offset="0" stop-color="#e0e0e0"/><stop offset="1" stop-color="#eee"/></linearGradient><linearGradient id="b" x1="37.57" y1="-5.77" x2="37.57" y2="57.26" gradientTransform="matrix(0, 1, 1, 0, 13.54, 0.46)" xlink:href="#a"/></defs><title>case-icon</title><rect x="5.29" y="1.02" width="47.68" height="63.03" rx="0.56" ry="0.56" transform="translate(-1.13 1.05) rotate(-2.03)" style="fill:url(#a)"/><g style="opacity:0.5"><rect x="8.14" y="12.89" width="21.99" height="0.8" transform="translate(-0.52 0.78) rotate(-2.29)" style="fill:#9e9e9e"/><rect x="30.98" y="12.37" width="9.68" height="0.8" transform="translate(-0.43 1.28) rotate(-2.03)" style="fill:#9e9e9e"/><rect x="41.55" y="12.04" width="7.22" height="0.8" transform="translate(-0.41 1.61) rotate(-2.03)" style="fill:#9e9e9e"/></g><g style="opacity:0.5"><rect x="8.17" y="15.69" width="21.97" height="0.8" transform="translate(-0.56 0.69) rotate(-2.03)" style="fill:#9e9e9e"/><rect x="31.08" y="15.1" width="9.68" height="0.8" transform="translate(-0.53 1.28) rotate(-2.03)" style="fill:#9e9e9e"/><rect x="41.64" y="14.77" width="7.22" height="0.8" transform="translate(-0.51 1.61) rotate(-2.03)" style="fill:#9e9e9e"/></g><g style="opacity:0.5"><rect x="8.27" y="18.41" width="21.97" height="0.8" transform="translate(-0.65 0.69) rotate(-2.03)" style="fill:#9e9e9e"/><rect x="31.17" y="17.81" width="9.68" height="0.8" transform="translate(-0.62 1.29) rotate(-2.03)" style="fill:#9e9e9e"/><rect x="41.75" y="17.48" width="7.22" height="0.8" transform="translate(-0.6 1.62) rotate(-2.03)" style="fill:#9e9e9e"/></g><g style="opacity:0.5"><rect x="8.36" y="21.13" width="21.97" height="0.8" transform="translate(-0.75 0.7) rotate(-2.03)" style="fill:#9e9e9e"/><rect x="31.27" y="20.54" width="9.68" height="0.8" transform="matrix(1, -0.04, 0.04, 1, -0.72, 1.29)" style="fill:#9e9e9e"/><rect x="41.84" y="20.2" width="7.22" height="0.8" transform="translate(-0.7 1.62) rotate(-2.03)" style="fill:#9e9e9e"/></g><g style="opacity:0.5"><rect x="8.57" y="23.77" width="21.99" height="0.8" transform="translate(-0.95 0.8) rotate(-2.29)" style="fill:#9e9e9e"/><rect x="31.38" y="23.24" width="9.68" height="0.8" transform="translate(-0.81 1.3) rotate(-2.03)" style="fill:#9e9e9e"/><rect x="41.93" y="22.91" width="7.22" height="0.8" transform="translate(-0.8 1.63) rotate(-2.03)" style="fill:#9e9e9e"/></g><g style="opacity:0.5"><rect x="8.55" y="26.57" width="21.97" height="0.8" transform="translate(-0.94 0.71) rotate(-2.03)" style="fill:#9e9e9e"/><rect x="31.46" y="25.97" width="9.68" height="0.8" transform="matrix(1, -0.04, 0.04, 1, -0.91, 1.3)" style="fill:#9e9e9e"/><rect x="42.03" y="25.64" width="7.22" height="0.8" transform="translate(-0.89 1.63) rotate(-2.03)" style="fill:#9e9e9e"/></g><g style="opacity:0.5"><rect x="8.79" y="29.21" width="21.99" height="0.8" transform="translate(-1.17 0.81) rotate(-2.29)" style="fill:#9e9e9e"/><rect x="31.56" y="28.69" width="9.68" height="0.8" transform="translate(-1.01 1.31) rotate(-2.03)" style="fill:#9e9e9e"/><rect x="42.13" y="28.36" width="7.22" height="0.8" transform="matrix(1, -0.04, 0.04, 1, -0.99, 1.64)" style="fill:#9e9e9e"/></g><g style="opacity:0.5"><rect x="8.76" y="32.01" width="21.97" height="0.8" transform="translate(-1.14 0.72) rotate(-2.03)" style="fill:#9e9e9e"/><rect x="31.66" y="31.41" width="9.68" height="0.8" transform="translate(-1.1 1.31) rotate(-2.03)" style="fill:#9e9e9e"/><rect x="42.23" y="31.08" width="7.22" height="0.8" transform="matrix(1, -0.04, 0.04, 1, -1.09, 1.64)" style="fill:#9e9e9e"/></g><g style="opacity:0.5"><rect x="8.84" y="34.73" width="21.97" height="0.8" transform="translate(-1.23 0.72) rotate(-2.03)" style="fill:#9e9e9e"/><rect x="31.75" y="34.13" width="9.68" height="0.8" transform="matrix(1, -0.04, 0.04, 1, -1.2, 1.32)" style="fill:#9e9e9e"/><rect x="42.32" y="33.8" width="7.22" height="0.8" transform="matrix(1, -0.04, 0.04, 1, -1.18, 1.65)" style="fill:#9e9e9e"/></g><g style="opacity:0.5"><rect x="8.94" y="37.44" width="21.97" height="0.8" transform="translate(-1.33 0.73) rotate(-2.03)" style="fill:#9e9e9e"/><rect x="31.86" y="36.85" width="9.68" height="0.8" transform="translate(-1.3 1.32) rotate(-2.03)" style="fill:#9e9e9e"/><rect x="42.41" y="36.52" width="7.22" height="0.8" transform="matrix(1, -0.04, 0.04, 1, -1.28, 1.65)" style="fill:#9e9e9e"/></g><g style="opacity:0.5"><rect x="9.04" y="40.16" width="21.97" height="0.8" transform="translate(-1.42 0.73) rotate(-2.03)" style="fill:#9e9e9e"/><rect x="31.94" y="39.57" width="9.68" height="0.8" transform="translate(-1.39 1.33) rotate(-2.03)" style="fill:#9e9e9e"/><rect x="42.52" y="39.24" width="7.22" height="0.8" transform="matrix(1, -0.04, 0.04, 1, -1.38, 1.66)" style="fill:#9e9e9e"/></g><g style="opacity:0.5"><rect x="9.13" y="42.88" width="21.97" height="0.8" transform="translate(-1.52 0.74) rotate(-2.03)" style="fill:#9e9e9e"/><rect x="32.04" y="42.29" width="9.68" height="0.8" transform="matrix(1, -0.04, 0.04, 1, -1.49, 1.33)" style="fill:#9e9e9e"/><rect x="42.61" y="41.96" width="7.22" height="0.8" transform="matrix(1, -0.04, 0.04, 1, -1.47, 1.66)" style="fill:#9e9e9e"/></g><g style="opacity:0.5"><rect x="9.24" y="45.6" width="21.97" height="0.8" transform="translate(-1.62 0.75) rotate(-2.03)" style="fill:#9e9e9e"/><rect x="32.15" y="45.01" width="9.68" height="0.8" transform="translate(-1.59 1.34) rotate(-2.03)" style="fill:#9e9e9e"/><rect x="42.71" y="44.68" width="7.22" height="0.8" transform="translate(-1.57 1.67) rotate(-2.03)" style="fill:#9e9e9e"/></g><g style="opacity:0.5"><rect x="9.32" y="48.32" width="21.97" height="0.8" transform="translate(-1.71 0.75) rotate(-2.03)" style="fill:#9e9e9e"/><rect x="32.23" y="47.73" width="9.68" height="0.8" transform="matrix(1, -0.04, 0.04, 1, -1.68, 1.34)" style="fill:#9e9e9e"/><rect x="42.8" y="47.4" width="7.22" height="0.8" transform="translate(-1.66 1.67) rotate(-2.03)" style="fill:#9e9e9e"/></g><g style="opacity:0.5"><rect x="9.42" y="51.03" width="21.97" height="0.8" transform="translate(-1.81 0.76) rotate(-2.03)" style="fill:#9e9e9e"/><rect x="32.34" y="50.45" width="9.68" height="0.8" transform="translate(-1.78 1.35) rotate(-2.03)" style="fill:#9e9e9e"/><rect x="42.89" y="50.12" width="7.22" height="0.8" transform="translate(-1.76 1.68) rotate(-2.03)" style="fill:#9e9e9e"/></g><rect x="37.8" y="53.31" width="12.73" height="2.51" transform="translate(-1.91 1.6) rotate(-2.03)" style="fill:#9e9e9e"/><rect x="5.29" y="1.02" width="47.68" height="63.03" rx="0.56" ry="0.56" transform="translate(-1.13 1.05) rotate(-2.03)" style="opacity:0.15000000596046448;isolation:isolate"/><rect x="7.77" y="14.18" width="63.03" height="47.68" rx="0.56" ry="0.56" transform="translate(-8.14 65.23) rotate(-73.91)" style="fill:url(#b)"/><g style="opacity:0.5"><rect x="35.19" y="5.78" width="0.8" height="21.97" transform="translate(9.53 46.24) rotate(-73.74)" style="fill:#9e9e9e"/><rect x="51.38" y="16.49" width="0.8" height="9.68" transform="translate(16.94 65.17) rotate(-73.91)" style="fill:#9e9e9e"/><rect x="60.36" y="20.3" width="0.8" height="7.22" transform="translate(20.95 75.67) rotate(-73.91)" style="fill:#9e9e9e"/></g><g style="opacity:0.5"><rect x="34.51" y="8.3" width="0.8" height="21.97" transform="translate(6.71 47.49) rotate(-73.91)" style="fill:#9e9e9e"/><rect x="50.63" y="19.09" width="0.8" height="9.68" transform="translate(13.89 66.33) rotate(-73.91)" style="fill:#9e9e9e"/><rect x="59.6" y="22.92" width="0.8" height="7.22" transform="translate(17.88 76.83) rotate(-73.91)" style="fill:#9e9e9e"/></g><g style="opacity:0.5"><rect x="33.75" y="10.92" width="0.8" height="21.97" transform="translate(3.64 48.65) rotate(-73.91)" style="fill:#9e9e9e"/><rect x="49.87" y="21.72" width="0.8" height="9.68" transform="translate(10.82 67.5) rotate(-73.91)" style="fill:#9e9e9e"/><rect x="58.84" y="25.53" width="0.8" height="7.22" transform="translate(14.83 77.98) rotate(-73.91)" style="fill:#9e9e9e"/></g><g style="opacity:0.5"><rect x="33" y="13.53" width="0.8" height="21.97" transform="translate(0.59 49.81) rotate(-73.91)" style="fill:#9e9e9e"/><rect x="49.12" y="24.32" width="0.8" height="9.68" transform="translate(7.78 68.66) rotate(-73.91)" style="fill:#9e9e9e"/><rect x="58.1" y="28.15" width="0.8" height="7.22" transform="translate(11.77 79.17) rotate(-73.91)" style="fill:#9e9e9e"/></g><g style="opacity:0.5"><rect x="32.32" y="16.25" width="0.8" height="21.97" transform="translate(-2.58 51.02) rotate(-73.74)" style="fill:#9e9e9e"/><rect x="48.36" y="26.95" width="0.8" height="9.68" transform="translate(4.7 69.83) rotate(-73.91)" style="fill:#9e9e9e"/><rect x="57.34" y="30.76" width="0.8" height="7.22" transform="translate(8.71 80.32) rotate(-73.91)" style="fill:#9e9e9e"/></g><g style="opacity:0.5"><rect x="31.49" y="18.76" width="0.8" height="21.97" transform="translate(-5.53 52.14) rotate(-73.91)" style="fill:#9e9e9e"/><rect x="47.61" y="29.55" width="0.8" height="9.68" transform="translate(1.66 70.99) rotate(-73.91)" style="fill:#9e9e9e"/><rect x="56.59" y="33.37" width="0.8" height="7.22" transform="translate(5.66 81.49) rotate(-73.91)" style="fill:#9e9e9e"/></g><g style="opacity:0.5"><rect x="30.74" y="21.37" width="0.8" height="21.97" transform="translate(-8.58 53.31) rotate(-73.91)" style="fill:#9e9e9e"/><rect x="46.85" y="32.18" width="0.8" height="9.68" transform="translate(-1.42 72.15) rotate(-73.91)" style="fill:#9e9e9e"/><rect x="55.82" y="35.99" width="0.8" height="7.22" transform="translate(2.59 82.64) rotate(-73.91)" style="fill:#9e9e9e"/></g><g style="opacity:0.5"><rect x="29.97" y="23.99" width="0.8" height="21.97" transform="translate(-11.65 54.47) rotate(-73.91)" style="fill:#9e9e9e"/><rect x="46.1" y="34.78" width="0.8" height="9.68" transform="translate(-4.46 73.33) rotate(-73.91)" style="fill:#9e9e9e"/><rect x="55.21" y="38.77" width="0.8" height="7.22" transform="translate(-0.65 83.9) rotate(-73.74)" style="fill:#9e9e9e"/></g><g style="opacity:0.5"><rect x="29.23" y="26.61" width="0.8" height="21.97" transform="translate(-14.7 55.65) rotate(-73.91)" style="fill:#9e9e9e"/><rect x="45.34" y="37.4" width="0.8" height="9.68" transform="translate(-7.52 74.49) rotate(-73.91)" style="fill:#9e9e9e"/><rect x="54.32" y="41.22" width="0.8" height="7.22" transform="translate(-3.52 84.98) rotate(-73.91)" style="fill:#9e9e9e"/></g><g style="opacity:0.5"><rect x="28.47" y="29.22" width="0.8" height="21.97" transform="translate(-17.76 56.8) rotate(-73.91)" style="fill:#9e9e9e"/><rect x="44.59" y="40.02" width="0.8" height="9.68" transform="translate(-10.58 75.65) rotate(-73.91)" style="fill:#9e9e9e"/><rect x="53.56" y="43.83" width="0.8" height="7.22" transform="translate(-6.58 86.14) rotate(-73.91)" style="fill:#9e9e9e"/></g><g style="opacity:0.5"><rect x="27.72" y="31.84" width="0.8" height="21.97" transform="translate(-20.82 57.97) rotate(-73.91)" style="fill:#9e9e9e"/><rect x="43.84" y="42.63" width="0.8" height="9.68" transform="translate(-13.63 76.82) rotate(-73.91)" style="fill:#9e9e9e"/><rect x="52.82" y="46.45" width="0.8" height="7.22" transform="translate(-9.63 87.32) rotate(-73.91)" style="fill:#9e9e9e"/></g><g style="opacity:0.5"><rect x="26.97" y="34.44" width="0.8" height="21.97" transform="translate(-23.86 59.13) rotate(-73.91)" style="fill:#9e9e9e"/><rect x="43.08" y="45.24" width="0.8" height="9.68" transform="translate(-16.69 77.98) rotate(-73.91)" style="fill:#9e9e9e"/><rect x="52.06" y="49.06" width="0.8" height="7.22" transform="translate(-12.69 88.48) rotate(-73.91)" style="fill:#9e9e9e"/></g><g style="opacity:0.5"><rect x="26.22" y="37.07" width="0.8" height="21.97" transform="translate(-26.93 60.31) rotate(-73.91)" style="fill:#9e9e9e"/><rect x="42.33" y="47.86" width="0.8" height="9.68" transform="translate(-19.75 79.15) rotate(-73.91)" style="fill:#9e9e9e"/><rect x="51.31" y="51.67" width="0.8" height="7.22" transform="translate(-15.74 89.64) rotate(-73.91)" style="fill:#9e9e9e"/></g><g style="opacity:0.5"><rect x="25.46" y="39.67" width="0.8" height="21.97" transform="translate(-29.98 61.46) rotate(-73.91)" style="fill:#9e9e9e"/><rect x="41.64" y="50.67" width="0.8" height="9.68" transform="translate(-23.02 80.32) rotate(-73.74)" style="fill:#9e9e9e"/><rect x="50.54" y="54.29" width="0.8" height="7.22" transform="translate(-18.81 90.8) rotate(-73.91)" style="fill:#9e9e9e"/></g><g style="opacity:0.5"><rect x="24.71" y="42.3" width="0.8" height="21.97" transform="translate(-33.05 62.64) rotate(-73.91)" style="fill:#9e9e9e"/><rect x="40.82" y="53.08" width="0.8" height="9.68" transform="translate(-25.86 81.48) rotate(-73.91)" style="fill:#9e9e9e"/><rect x="49.8" y="56.91" width="0.8" height="7.22" transform="translate(-21.86 91.98) rotate(-73.91)" style="fill:#9e9e9e"/></g><rect x="45.45" y="57.27" width="2.51" height="12.73" transform="translate(-27.38 90.88) rotate(-73.91)" style="fill:#9e9e9e"/></svg>