<svg xmlns="http://www.w3.org/2000/svg" xmlns:xlink="http://www.w3.org/1999/xlink" viewBox="0 0 100 100"><defs><linearGradient id="b" x1=".1" x2="100" y1="50" y2="50" gradientUnits="userSpaceOnUse"><stop offset="0" stop-color="#c80000" stop-opacity=".2"/><stop offset="1" stop-color="#c80000" stop-opacity=".2"/></linearGradient><clipPath id="c"><ellipse cx="49.9" cy="50" fill="none" rx="49.9" ry="50"/></clipPath><linearGradient id="a" x1="35.4" x2="35.4" y1="62.3" y2="78" gradientUnits="userSpaceOnUse"><stop offset="0" stop-color="#ec1c24"/><stop offset="1" stop-color="#c5252f"/></linearGradient><linearGradient id="d" x1="46.2" x2="46.2" y1="-1.9" y2="107.9" gradientUnits="userSpaceOnUse"><stop offset="0" stop-color="#fa0000"/><stop offset="1" stop-color="#960000"/></linearGradient><linearGradient id="e" x1="41.9" x2="41.9" y1="32.6" y2="56.5" xlink:href="#a"/><linearGradient id="f" x1="72" x2="72" y1="17.6" y2="29.2" xlink:href="#a"/><linearGradient id="g" x1="46.5" x2="45.3" y1="38.2" y2="12.1" gradientUnits="userSpaceOnUse"><stop offset="0" stop-color="#fff"/><stop offset="1" stop-color="#fff" stop-opacity="0"/></linearGradient><linearGradient id="h" x1="14.8" x2="85.4" y1="85.3" y2="14.7" gradientUnits="userSpaceOnUse"><stop offset="0" stop-color="#fff" stop-opacity="0"/><stop offset="1" stop-color="#fff" stop-opacity=".4"/></linearGradient></defs><ellipse cx="50.1" cy="50" fill="#fff" rx="49.9" ry="50"/><ellipse cx="50.1" cy="50" fill="url(#b)" rx="49.9" ry="50"/><g clip-path="url(#c)"><path fill="#fff" d="M18.2.7h-7.6a6.4 6.4 0 0 0-1 0h7.1a11.8 11.8 0 0 1 1.5 0zm18.4 61.6L33 70.7c1.2 3.2 2 5 4.9 7.3-3.1-4.4-2-7-1.3-15.7z"/><path fill="url(#a)" d="M36.6 62.3L33 70.7c1.2 3.2 2 5 4.9 7.3-3.1-4.4-2-7-1.3-15.7z"/><path fill="#fff" d="M84.3 89.5c1.4-1.8.3-4.8-.7-6.6a19.8 19.8 0 0 0-5.6-5.7c-2.5-1.8-5.4-2.8-7.4-2.4a7.2 7.2 0 0 0-3.2 1.7 17 17 0 0 0-1.6-5 13.2 13.2 0 0 0 3.9-3.1c12.5 2.2 14.8-5.7 20.7-7.9l1.5-5.8c-8.4 3-10.2 11.5-19.8 9.7.8-2.8 1-5.4 5.8-7.5-7.9 1.6-9.7 7.2-9.9 7.6-2.6 5.1-10 5.8-7.5 7.5 4.5 3.1 1.6 7.5 5.6 9.4.8.4 1.7-1 3-1 .4 0 1.6-1.2 2.4-1.7 1.6-1 7.8 3.4 9.2 7 .7 1.9-3.2-.7-8.2 1.6-1 .4-1-2-4.3 1.3-1 1-3.8.1-4.6-1-2.4-3.6-6.1-8.7-10-10.2a4 4 0 0 1-2.6-2.6c-1-3-2.4-5.4-1.6-6.7 4.2-6.3 5.3-8-2.5-12.4 3.6 5 4.2 6.5-.3 11.6-2.4 2.8 0 5.5 1.7 12-1.3-1.6-4.5 0-3.9 3.2.9 4.7-4.1 5.6-6 4.6-7.3-3.8-9.5-3.4-14.4-10.4-2.2-3-4.8 2-6.7-7L12 72.3c-3.5 2-9.9-.8-3.6-12.7-2 4.7.8 6.8 3.8 4.6l4.3-3.4 6-22.3c4-14.5 14.9-19.3 26.3-20.1l52.5-3.2c-.7-3 6.8-17 3.7-17L18.2.6a11.8 11.8 0 0 0-1.4 0H9.6C6.4 1.2-10.6 13.5-10.6 17L-3 95a6.8 6.8 0 0 0 6.8 6.8h3.9l56.1-8c6.3 0 6.9-1.7 8.7-2.4 4.3-1.8 10.3 0 11.8-1.9zM39 88.7c3.7 1.2 9.4-2 7.1-5.1-1.5-2.1 1.4-4.4 2.8-2.8 5.8 6.5-5.7 11.7-10 7.9z"/><path fill="url(#d)" d="M72.1 64.5c.8-2.8 1-5.5 5.8-7.6-7.9 1.6-9.7 7.2-9.9 7.6-2.6 5.1-10 5.8-7.5 7.5 4.5 3.1 1.6 7.5 5.6 9.4.8.4 1.7-1 3-1 .4 0 1.6-1.2 2.4-1.7 1.6-1 7.8 3.4 9.2 7 .7 1.9-3.2-.7-8.2 1.6-1 .4-1-2-4.3 1.3-1 1-3.8.1-4.6-1-2.4-3.6-6.1-8.7-10-10.2a4 4 0 0 1-2.6-2.6c-1-3-2.4-5.4-1.6-6.7 4.2-6.3 5.3-8-2.5-12.4 3.6 5 4.2 6.5-.3 11.6-2.4 2.8 0 5.5 1.7 12-1.3-1.6-4.5 0-3.9 3.2.9 4.7-4.1 5.6-6 4.6-7.3-3.8-9.5-3.4-14.4-10.4-2.2-3-4.8 2-6.7-7L12 72.3c-3.5 2-9.9-.8-3.6-12.7-2 4.7.8 6.8 3.8 4.6l4.3-3.4 6-22.3c4-14.5 14.9-19.3 26.3-20.1l52.5-3.2c-.7-3 6.8-17 3.7-17L18.2.6a11.8 11.8 0 0 0-1.4 0h-9C4 .7-13.5 13.2-13.5 17l7.6 78a6.8 6.8 0 0 0 6.8 6.8h6.8L53 108c6.2 0 22.5-10.5 24.3-11.2 4.4-1.7 5.4-5.4 6.9-7.2s.3-4.8-.7-6.6a19.8 19.8 0 0 0-5.6-5.7c-2.5-1.8-5.4-2.8-7.4-2.4a7.2 7.2 0 0 0-3.2 1.7 17 17 0 0 0-1.6-5 13.2 13.2 0 0 0 3.9-3.1c12.5 2.2 14.8-5.7 20.7-7.9l1.5-5.8c-8.4 3-10.2 11.5-19.8 9.8zm-33 24.2c3.7 1.2 9.4-2 7.2-5.1-1.6-2.1 1.3-4.4 2.8-2.8 5.7 6.5-5.8 11.7-10 7.9z"/><path fill="#fff" d="M33.8 34.3c14.5-.3 14.4 3.2-2.6 15.8-4.4 3.3 2 9 7 5.2 19.5-14.6 24.3-27.4-4.4-21z"/><path fill="url(#e)" d="M33.8 34.3c14.5-.3 14.4 3.2-2.6 15.8-4.4 3.3 2 9 7 5.2 19.5-14.6 24.3-27.4-4.4-21z"/><path fill="#fff" d="M92.6 20.4v-1.8l-41.2 3.8c14.9-.1 18.7 8.8 27.6 6.4l13.6-3.6v-1l-17.6.6z"/><path fill="url(#f)" d="M92.6 20.4v-1.8l-41.2 3.8c14.9-.1 18.7 8.8 27.6 6.4l13.6-3.6v-1l-17.6.6z"/><path fill="url(#g)" d="M103.9-2L17 .5H9.5a6.2 6.2 0 0 0-1 0H6.7C3 .6-14.5 13.2-14.5 16.9L-.1 55.3a311.7 311.7 0 0 1 103.8-8.7l-4.6-22-.8-1.4-6.8-3v-1.8l8.9-1.8a7 7 0 0 0-.2-1.6c-.8-3 6.8-17 3.7-17z" opacity=".3"/></g><ellipse cx="50.1" cy="50" fill="url(#h)" rx="49.9" ry="50"/></svg>