<svg xmlns="http://www.w3.org/2000/svg" viewBox="0 0 100 100"><defs><linearGradient id="a" x1="2.9" x2="97.1" y1="50" y2="50" gradientUnits="userSpaceOnUse"><stop offset="0" stop-color="#eee" stop-opacity=".2"/><stop offset="1" stop-color="#bdbdbd" stop-opacity=".2"/></linearGradient><linearGradient id="b" x1="14.9" x2="85.1" y1="85.1" y2="14.9" gradientUnits="userSpaceOnUse"><stop offset="0" stop-color="#fff" stop-opacity="0"/><stop offset="1" stop-color="#fff" stop-opacity=".4"/></linearGradient></defs><g style="isolation:isolate"><circle cx="50" cy="50" r="47.1" fill="url(#a)"/><path fill="#bdbdbd" d="M50 100a50 50 0 1 1 50-50 50 50 0 0 1-50 50zm0-94.1A44.1 44.1 0 1 0 94.1 50 44.2 44.2 0 0 0 50 5.9z"/><circle cx="50" cy="50" r="49.6" fill="url(#b)"/><path fill="#bdbdbd" d="M52.6 55.3c-7.1-2.5-6.7-1.3-6.7-6 0-3 1.6-1.2 2.6-7 .4-2.2.7-.7 1.6-4.3.4-2-.3-2-.2-3l.3-3.5c.2-2.3-2-8.3-9.8-8.3s-10 6-9.8 8.3L31 35c0 1-.7 1-.2 2.9.8 3.6 1.1 2 1.5 4.4 1 5.7 2.6 4 2.6 7 0 4.6.4 3.4-6.6 5.9s-9 4.1-9.1 5.3c-.3 1.5-.3 10.4-.3 10.4h43s0-9-.2-10.4c-.3-1.2-2-2.8-9.1-5.3z"/><path fill="#bdbdbd" d="M81 71l-.1-13c-.2-1-1.5-2.1-7-4s-5-1-5-4.6c0-2.3 1.2-1 2-5.4.3-1.7.5-.5 1.1-3.3.4-1.5-.2-1.6-.1-2.3l.2-2.7c.2-1.7-1.5-6.3-7.5-6.3S57 34 57.1 35.7l.3 2.7c0 .7-.5.8-.2 2.3.7 2.8 1 1.6 1.2 3.3.8 4.4 2 3 2 5.4 0 3.2.3 2.8-3.6 4 5.4 2.2 7.6 4 8 6.6.3 1.7.3 10.7.3 11h16z"/><circle cx="50" cy="50" r="49.6" fill="#9e9e9e" opacity=".1"/></g></svg>