<svg xmlns="http://www.w3.org/2000/svg" xmlns:xlink="http://www.w3.org/1999/xlink" viewBox="0 0 510 258.5"><defs><linearGradient id="a" x1="760.16" y1="-181.92" x2="785.83" y2="-207.59" gradientTransform="translate(-469.67 366.77)" gradientUnits="userSpaceOnUse"><stop offset="0" stop-color="#c80000" stop-opacity="0.3"/><stop offset="1" stop-color="#c80000" stop-opacity="0.2"/></linearGradient><linearGradient id="b" x1="606.55" y1="-183.4" x2="659.36" y2="-236.21" gradientTransform="translate(-386.62 253.01)" xlink:href="#a"/><linearGradient id="c" x1="308.62" y1="98.44" x2="427.97" y2="98.44" gradientTransform="translate(-112.44 12.66)" gradientUnits="userSpaceOnUse"><stop offset="0" stop-color="#e0e0e0"/><stop offset="1" stop-color="#eee"/></linearGradient><linearGradient id="d" x1="-99.09" y1="75.63" x2="-42.26" y2="18.8" gradientTransform="translate(172.84 31.02)" xlink:href="#a"/><linearGradient id="e" x1="264.43" y1="135.56" x2="297.37" y2="102.62" gradientTransform="translate(-156.54 96.59)" xlink:href="#a"/><linearGradient id="f" x1="524.29" y1="18.35" x2="549.36" y2="-6.72" gradientTransform="translate(-132.6 211.61)" xlink:href="#a"/><linearGradient id="g" x1="697.61" y1="-333.57" x2="740.07" y2="-376.03" gradientTransform="translate(-303.98 399.89)" xlink:href="#a"/></defs><title>upgrade-hero__account-info</title><rect x="290.49" y="159.18" width="25.67" height="25.67" transform="translate(300.63 -176.69) rotate(60)" style="stroke:#c80000;stroke-miterlimit:10;stroke-width:2px;fill:url(#a)"/><rect x="219.93" y="16.81" width="52.81" height="52.81" transform="translate(160.59 -191.73) rotate(60)" style="stroke:#c80000;stroke-miterlimit:10;stroke-width:2px;fill:url(#b)"/><rect x="196.18" y="33.25" width="119.35" height="155.69" transform="translate(30.56 -53.37) rotate(12.66)" style="stroke:#ccc;stroke-miterlimit:10;stroke-width:0.5px;fill:url(#c)"/><rect x="218.06" y="37.11" width="31.86" height="33.53" transform="translate(17.49 -49.97) rotate(12.66)" style="fill:#9e9e9e;opacity:0.5"/><rect x="256.79" y="48.86" width="62.22" height="4.29" transform="translate(18.17 -61.85) rotate(12.66)" style="fill:#9e9e9e;opacity:0.5"/><rect x="254.44" y="59.33" width="62.22" height="4.29" transform="translate(20.41 -61.08) rotate(12.66)" style="fill:#9e9e9e;opacity:0.5"/><rect x="252.31" y="67.77" width="43.67" height="4.29" transform="translate(21.98 -58.38) rotate(12.66)" style="fill:#9e9e9e;opacity:0.5"/><rect x="208.18" y="81.1" width="31.86" height="33.53" transform="translate(26.89 -46.73) rotate(12.66)" style="fill:#9e9e9e;opacity:0.5"/><rect x="246.91" y="92.85" width="62.22" height="4.29" transform="translate(27.57 -58.62) rotate(12.66)" style="fill:#9e9e9e;opacity:0.5"/><rect x="244.56" y="103.32" width="62.22" height="4.29" transform="translate(29.81 -57.85) rotate(12.66)" style="fill:#9e9e9e;opacity:0.5"/><rect x="242.43" y="111.76" width="43.67" height="4.29" transform="translate(31.38 -55.14) rotate(12.66)" style="fill:#9e9e9e;opacity:0.5"/><g style="opacity:0.5"><path d="M203.11,123.21l94.66,21.26-8,35.52-94.65-21.26,8-35.52m-.75-1.2-8.42,37.48,96.6,21.7L299,143.71,202.36,122Z" style="fill:#9e9e9e"/></g><path d="M250.47,146.6a2.87,2.87,0,0,0-2.31-3.67,4.87,4.87,0,0,0-3.95,1L243,142.25a7.21,7.21,0,0,1,5.88-1.37c3.13.7,4.76,3.07,4.08,6.1-.92,4.06-6.27,4.58-6.73,9l-2.26-.5C244.43,150.54,249.73,149.87,250.47,146.6Zm-8.13,13.33a1.89,1.89,0,1,1,1.41,2.34A1.89,1.89,0,0,1,242.34,159.93Z" style="fill:#c80000"/><ellipse cx="249.04" cy="244.41" rx="69.1" ry="6.95" style="opacity:0.1"/><rect x="73.76" y="49.82" width="56.83" height="56.83" transform="translate(-19.68 36.87) rotate(-18.69)" style="stroke:#c80000;stroke-miterlimit:10;stroke-width:2px;fill:url(#d)"/><rect x="107.89" y="199.21" width="32.95" height="32.95" transform="translate(99.48 -32.04) rotate(24.23)" style="stroke:#c80000;stroke-miterlimit:10;stroke-width:2px;fill:url(#e)"/><rect x="391.69" y="204.88" width="25.08" height="25.08" transform="translate(124.85 -146.75) rotate(24.23)" style="stroke:#c80000;stroke-miterlimit:10;stroke-width:2px;fill:url(#f)"/><rect x="393.63" y="23.86" width="42.46" height="42.46" transform="translate(246.47 -336.73) rotate(60)" style="stroke:#c80000;stroke-miterlimit:10;stroke-width:2px;fill:url(#g)"/><path d="M120.12,113.91c15,11.52,40.68,24.15,52,26.81" style="fill:none;stroke:#bdbdbd;stroke-miterlimit:10;stroke-width:4px"/><polyline points="150.63 151.6 172.17 140.72 163.79 119.75" style="fill:none;stroke:#bdbdbd;stroke-miterlimit:10;stroke-width:4px"/><path d="M152.49,212.27c10.82-5.77,25.15-17.62,29.76-23.63" style="fill:none;stroke:#bdbdbd;stroke-miterlimit:10;stroke-width:4px"/><polyline points="182.94 204.29 182.25 188.64 167.61 187.99" style="fill:none;stroke:#bdbdbd;stroke-miterlimit:10;stroke-width:4px"/><path d="M383.77,202.17c-16-4.16-38.52-15.17-46.46-21.6" style="fill:none;stroke:#bdbdbd;stroke-miterlimit:10;stroke-width:4px"/><polyline points="341.34 201.3 337.31 180.57 356.3 175.11" style="fill:none;stroke:#bdbdbd;stroke-miterlimit:10;stroke-width:4px"/><path d="M390.3,57.31c-14.21,15.86-40.12,35.17-52.18,40.46" style="fill:none;stroke:#bdbdbd;stroke-miterlimit:10;stroke-width:4px"/><polyline points="364.25 105.4 338.12 97.77 343.08 72.8" style="fill:none;stroke:#bdbdbd;stroke-miterlimit:10;stroke-width:4px"/></svg>